<?xml version="1.0" standalone="no"?>
<!DOCTYPE svg PUBLIC "-//W3C//DTD SVG 1.1//EN" "http://www.w3.org/Graphics/SVG/1.1/DTD/svg11.dtd" >
<!--
2013-9-30: Created.
-->
<svg>
<metadata>
Created by iconfont
</metadata>
<defs>

<font id="iconfont" horiz-adv-x="1024" >
  <font-face
    font-family="iconfont"
    font-weight="500"
    font-stretch="normal"
    units-per-em="1024"
    ascent="896"
    descent="-128"
  />
    <missing-glyph />
    
    <glyph glyph-name="suo" unicode="&#59012;" d="M909.8 35.9c0-27.4-20.6-49.7-45.9-49.7H313.5c-25.2 0-45.9 22.4-45.9 49.7V384c0 27.3 20.6 49.7 45.9 49.7H864c25.2 0 45.9-22.4 45.9-49.7v-348.1zM810.4 483.5h-24.9V558c0 151.7-124.3 273.5-273.5 273.5-151.7 0-273.5-121.8-273.5-273.5v-74.6h-24.9c-54.7 0-99.5-44.8-99.5-99.5v-348.1c0-54.7 44.8-99.5 99.5-99.5h596.7c54.7 0 99.5 44.8 99.5 99.5V384c0 54.7-44.7 99.5-99.4 99.5zM288.2 558c0 124.3 99.5 223.8 223.8 223.8S735.8 682.4 735.8 558v-74.6H288.2V558z m571.9-522.1c0-27.4-22.4-49.7-49.7-49.7H213.6c-27.3 0-49.7 22.4-49.7 49.7V384c0 27.3 22.4 49.7 49.7 49.7h596.7c27.3 0 49.7-22.4 49.7-49.7v-348.1z m0 0M512 297c-27.3 0-49.7-22.4-49.7-49.7 0-17.4 9.9-34.8 24.9-42.3v-57.2c0-12.4 9.9-24.9 24.9-24.9 14.9 0 24.9 12.4 24.9 24.9V205c14.9 7.5 24.9 24.9 24.9 42.3-0.2 27.3-22.6 49.7-49.9 49.7z m0 0"  horiz-adv-x="1024" />

    
    <glyph glyph-name="youxiang1" unicode="&#58956;" d="M876.557 685.435H144.38c-44.805 0-81.256-36.45-81.256-81.257v-514.471c0-44.806 36.45-81.257 81.256-81.257h732.178c44.806 0 81.257 36.45 81.257 81.257V604.178c0 44.807-36.45 81.257-81.257 81.257z m0-55.919c4.119 0 8.005-0.993 11.445-2.742l-377.534-272.26L132.93 626.767a25.16 25.16 0 0 0 11.45 2.748h732.177z m0-565.147H144.38c-13.966 0-25.338 11.372-25.338 25.338V567.844L510.468 285.57l391.428 282.282v-478.146c0-13.966-11.358-25.338-25.339-25.338z"  horiz-adv-x="1024" />

    
    <glyph glyph-name="nickname" unicode="&#58900;" d="M338.2300046299574 431.39181691910244c39.49318076591878 0 71.0877253786538 31.594544612735028 71.0877253786538 71.0877253786538s-31.594544612735028 71.0877253786538-71.0877253786538 71.0877253786538-71.0877253786538-31.594544612735028-71.0877253786538-71.0877253786538 31.594544612735028-71.0877253786538 71.0877253786538-71.0877253786538z m347.5399907400852 0c39.49318076591878 0 71.0877253786538 31.594544612735028 71.0877253786538 71.0877253786538s-31.594544612735028 71.0877253786538-71.0877253786538 71.0877253786538-71.0877253786538-31.594544612735028-71.0877253786538-71.0877253786538c-7.898636153183757-39.49318076591878 31.594544612735028-71.0877253786538 71.0877253786538-71.0877253786538zM512 91.75046233220087c126.37817845094011 0 236.9590845955127 78.98636153183756 276.45226536143144 197.46590382959388h-545.0058945696793c31.594544612735028-118.47954229775635 142.1754507573076-197.46590382959388 268.5536292082477-197.46590382959388z m0-197.46590382959388c-268.5536292082477 0-489.7154414973929 221.16181228914513-489.7154414973929 489.7154414973929s221.16181228914513 489.7154414973929 489.7154414973929 489.7154414973929 489.7154414973929-221.16181228914513 489.7154414973929-489.7154414973929-221.16181228914513-489.7154414973929-489.7154414973929-489.7154414973929z"  horiz-adv-x="1024" />

    
    <glyph glyph-name="denglu" unicode="&#58901;" d="M887.413-63.473c-16.764 0-30.404 13.656-30.404 30.42 0 92.336-60.086 194.454-115.887 250.289-11.89 11.84-11.89 31.154-0.05 43.028 5.757 5.757 13.395 8.914 21.523 8.914 8.127 0 15.781-3.157 21.522-8.897 66.563-66.563 133.746-183.089 133.746-293.318-0.03-16.781-13.67-30.436-30.45-30.436z m-751.456 0c-16.764 0-30.42 13.656-30.42 30.42 0 110.244 67.168 226.755 133.73 293.3 39.334 39.317 86.795 69.801 138.344 88.952-78.224 46.987-125.946 130.46-125.946 222.749 0 143.38 116.657 260.02 260.036 260.02 143.364 0 260.02-116.64 260.02-260.02 0-143.397-116.656-260.022-260.02-260.022-3.32 0-6.624 0.082-9.911 0.197-82.492-2.323-160.683-36.03-219.494-94.89-55.835-55.834-115.889-157.95-115.889-250.289-0.048-16.762-13.67-30.417-30.45-30.417z m375.695 436.567c1.374 0 2.699-0.099 4.023-0.295 107.711 2.126 195.208 91.307 195.208 199.132 0 109.838-89.361 199.183-199.198 199.183s-199.197-89.345-199.197-199.165c0-106.763 83.505-194.178 190.104-198.985 2.584 0.08 5.822 0.13 9.06 0.13z"  horiz-adv-x="1024" />

    
    <glyph glyph-name="zhongfumima" unicode="&#58916;" d="M512 315.321379A101.658483 101.658483 0 0 1 411.259586 214.510345c0-47.633655 32.979862-87.922759 76.941242-97.103448v-86.086621a21.186207 21.186207 0 0 1 21.998344-21.998345h3.531035a21.186207 21.186207 0 0 1 21.998345 21.998345v86.157241c43.961379 10.981517 76.941241 51.305931 76.941241 97.103449a101.658483 101.658483 0 0 1-100.669793 100.740413z m0-153.776551a52.965517 52.965517 0 1 0 52.965517 52.965517 53.177379 53.177379 0 0 0-52.965517-52.965517zM819.764966 458.151724h-3.531035V593.743448a302.256552 302.256552 0 0 1-604.513103 0V458.151724h-5.649656A114.546759 114.546759 0 0 1 90.676966 344.593655v-359.035586A114.158345 114.158345 0 0 1 204.235034-128h615.529932a114.158345 114.158345 0 0 1 113.558068 113.558069V344.628966A114.158345 114.158345 0 0 1 819.764966 458.151724zM264.827586 593.743448a247.419586 247.419586 0 0 0 247.172414 247.172414c135.556414 0 247.172414-111.757241 247.172414-247.172414V458.151724h-494.344828z m613.552552-608.185379a57.873655 57.873655 0 0 0-58.615172-58.615172H204.235034a57.873655 57.873655 0 0 0-58.615172 58.615172V344.628966a57.873655 57.873655 0 0 0 58.615172 58.615172h615.529932a57.873655 57.873655 0 0 0 58.615172-58.615172v-359.070897z"  horiz-adv-x="1024" />

    
    <glyph glyph-name="mima" unicode="&#59551;" d="M780.8 458.478933c41.130667 0 74.478933-33.348267 74.478933-74.478933v-347.5456a74.478933 74.478933 0 0 0-74.478933-74.478933h-546.133333a74.478933 74.478933 0 0 0-74.478934 74.478933V384c0 41.130667 33.348267 74.478933 74.478934 74.478933h546.133333m0 74.478934h-546.133333A148.957867 148.957867 0 0 1 85.7088 384v-347.5456a148.957867 148.957867 0 0 1 148.957867-148.923733h546.133333a148.957867 148.957867 0 0 1 148.957867 148.923733V384a148.957867 148.957867 0 0 1-148.957867 148.957867z m-273.066667 273.066666a173.738667 173.738667 0 0 0 173.738667-173.7728v-99.328H334.0288v99.328a173.738667 173.738667 0 0 0 173.738667 173.738667m0 74.478933a248.251733 248.251733 0 0 1-248.251734-248.2176v-173.7728h496.503467v173.738667A248.251733 248.251733 0 0 1 507.733333 880.503467z m0-781.960533a37.205333 37.205333 0 0 0-37.205334 37.239467v148.957866a37.205333 37.205333 0 0 0 74.410667 0v-148.957866a37.205333 37.205333 0 0 0-37.205333-37.205334z"  horiz-adv-x="1024" />

    
    <glyph glyph-name="zhongfumima1" unicode="&#59030;" d="M856.282 704.98c-166.024 0-330.884 94.373-332.631 95.538-3.495 1.747-6.99 2.912-10.486 2.912-3.495 0-7.573-1.165-10.486-2.912-1.747-1.165-170.685-95.537-334.961-95.537-11.651 0-21.555-9.903-21.555-21.554v-300.592c0-133.402 62.915-248.163 181.754-331.467 88.546-62.332 175.927-85.05 179.423-85.633 1.747-0.583 3.495-0.583 5.243-0.583 1.747 0 3.495 0 5.242 0.583 3.496 1.165 90.294 23.884 178.84 86.798 118.257 83.887 180.589 198.065 180.589 330.884v300.01c0.583 11.65-9.32 21.554-20.972 21.554zM722.88 459.73L505.592 242.442c-5.825-5.825-13.398-8.738-20.971-8.738-8.156 0-15.73 2.913-20.972 8.738L329.082 377.01c-11.651 11.651-11.651 30.293 0.582 41.944a29.534 29.534 0 0 0 41.943 0l113.596-113.596 195.734 196.317c11.651 11.65 30.292 11.65 41.943-0.583a29.91 29.91 0 0 0 0-41.36z"  horiz-adv-x="1024" />

    
    <glyph glyph-name="zhongfumima2" unicode="&#59031;" d="M509.783093 896c169.435052 0 307.321402-137.522144 309.026309-307.078598 0-0.527835 0.121402-1.013443 0.121402-1.541278v-49.616495h8.772619c66.65501-0.200577 120.589196-54.298392 120.589196-120.958681v-325.024989c0-145.276041-68.497155-218.967093-203.665155-218.967093H274.938722c-114.946639 0-181.168825 37.676866-198.550433 138.086928-2.132454 3.309526-3.837361 138.609485-5.114722 405.905154-0.021113 66.670845 53.923629 120.779216 120.589196 120.958681H200.593155v49.616495c0 0.527835 0.121402 1.013443 0.15835 1.541278C202.424742 758.477856 340.311093 896 509.788371 896z m317.915051-424.221031H191.87332c-30.255505 0-54.81567-24.681567-54.815671-54.974021v-347.473814c0-108.697072 39.909608-130.538887 137.886351-130.538887h469.688742c97.934515 0 137.886351 44.338144 137.886351 152.987712V416.804948c0 30.292454-24.602392 54.979299-54.810392 54.979299zM477.991588 390.967423c53.31134 10.440577 105.656742-2.301361 146.416165-32.424908l15.755876 19.445444c5.700619 7.088825 17.001567 4.929979 19.735752-3.784578l23.752578-76.156041c3.114227-10.055258-4.977485-20.015505-15.465567-19.054845L588.715546 286.350515c-9.052371 0.865649-13.554804 11.454021-7.80668 18.537567l10.155546 12.54664a131.151175 131.151175 0 0 1-76.346061 24.280412c-80.605691 0-144.357608-72.22367-129.98466-155.510763 8.714557-50.577155 47.652948-92.386969 97.512247-104.553567 67.774021-16.473732 132.713567 20.501113 155.801072 80.99101 6.17567 16.141196 26.391753 22.749691 41.329485 11.158433 9.532701-7.373856 11.691546-20.833649 7.23134-32.039587-27.632165-69.885361-95.353402-116.815175-171.889484-116.815175-111.309856 0-199.674722 98.420124-182.72066 212.981443 11.211216 76.061031 70.550433 138.276948 145.98334 153.029938zM509.783093 830.020619c-134.228454 0-243.453361-109.546887-243.453361-244.144825v-48.112165h486.864495v48.112165c0 134.597938-109.219629 244.144825-243.411134 244.144825z"  horiz-adv-x="1024" />

    
    <glyph glyph-name="nicheng" unicode="&#58902;" d="M868.519 450.265L549.715 127.70799999999997l-228.24 230.917 318.798 322.548c1.088 1.089 2.17 1.082 3.245 0.01l225-227.65c0.532-0.543 0.65-1.185 0.65-1.638 0-0.445-0.118-1.084-0.65-1.63zM428.094 72.59699999999998c-0.168-0.04-0.55 0-0.306-0.256L267.089 234.84299999999996c-0.078 0.165-0.102 0.586-0.31 0.244l50.922 79.907 188.904-191.117-78.511-51.28z m-84.957 4.258l-28.832 0.827-57.095 57.765 30.652 31.013 71.924-72.767-16.649-16.838z m378.038 625.127L889.092 532.0899999999999c3.81-3.854 3.81-10.372-0.007-14.232l-18.622-18.84-181.98 184.121 18.623 18.843c3.808 3.854 10.26 3.854 14.069 0z m191.368-146.165L744.624 725.711c-16.8 17.01-44.165 17.01-60.968 0l-18.81-19.035c-6.407 5.55-14.395 8.718-22.944 8.718-9.478 0-18.385-3.724-25.07-10.486L274.578 358.625l19.133-19.359-54.813-86.004c-8.226-12.915-6.335-30.854 4.404-41.713l21.111-21.36-54.102-54.742 89.873-90.928 56.299-1.613 26.751 27.06 21.114-21.358c6.256-6.338 14.886-9.627 23.52-9.627 6.192 0 12.391 1.69 17.716 5.18l85.003 55.452 19.128-19.355 342.253 346.28c6.685 6.764 10.365 15.777 10.365 25.373-0.004 8.637-3.134 16.71-8.61 23.187l18.813 19.033c16.81 17.006 16.815 44.678 0.007 61.686z"  horiz-adv-x="1024" />

    
    <glyph glyph-name="lu" unicode="&#58912;" d="M59.317073-67.382116s2.455777 56.003467 7.293101 65.69358 21.876209 21.89786 21.876209 21.89786 19.377132-3.77336 29.169311 7.299286 45.892718 70.985562 43.752418 102.190013c0 0 59.57888 31.959122 65.631721 72.992866 0 0-6.158 95.125788 14.583109 109.489299 0 0-62.532617 23.790726-29.16931 94.890726 0 0 38.076914-58.505638 65.631721-65.693579 0 0 53.167261 43.229716 102.091039 36.496433s167.94545-59.414956 196.888978-14.598574 38.970767 123.472382-21.87621 197.080739c0 0-26.657861 24.338172-43.752419 14.598573s-56.980829-12.680964-58.33862-7.299287 29.16931 29.197146 29.16931 29.197147h-14.583108s-74.641391-20.772038-131.263443 7.299286c0 0 26.289803-1.289747 36.462411 7.299287s-22.049413 14.799613-43.752418 36.496433 19.176092-4.967226 29.16931-7.299287S225.555233 738.310666 219.737454 793.933704s6.856999-29.886867 58.33862-51.095006c0 0-12.943862 106.928363 21.87621 145.985732s-34.33139-93.64428 14.583108-138.686445c0 0 21.873116 120.908353 51.033148 124.087872s-41.825531-12.906747-14.583108-124.087872c0 0 37.662463 42.991561 43.752418 43.795719s-41.151275-56.365339-21.876209-102.190012 77.106447-65.545119 102.091039-65.69358 79.797286-4.401222 80.21483 7.299287-14.583109 29.197146-14.583109 29.197146 37.541839-37.025322 51.033148-43.795719 123.933226 2.01349 131.260349-14.598574c16.123382-36.558291-58.035514-63.095528-58.33862-80.292152s77.462133-104.930338 51.033148-226.277885c0 0 83.904681-11.366474 94.801031-21.89786 26.425892-25.547503-15.347059-132.636698-36.462411-145.985732s90.381251-66.380207 102.091039-72.992866 29.382722-4.163068 36.462411-7.299287S956.263309-1.688536 956.263309-1.688536h-87.507931s3.324887 20.045202-7.290007 21.89786a110.080046 110.080046 0 0 1-29.169311 0c-5.632204-0.698999-61.301636 66.411136-72.924821 72.992866 0 0-100.123943-73.571242-123.967249-72.992866 0 0 8.462224 66.411136 14.586202 72.992866s14.719197 6.742561 21.876209 7.299286 47.259788 6.977623 43.752419 14.598574-126.061154 76.512607-123.967249 80.292152-115.755551-26.132065-211.475179 7.299287c0 0-41.961619-92.079263-145.846551-80.292153 0 0 41.41108-74.975427 51.033148-131.387159a355.150501 355.150501 0 0 0 0-109.489299s-44.111197 42.150287-43.752419 51.095006a46.740178 46.740178 0 0 0 7.293101 21.89786c3.49809 6.185836-16.151218 7.339495-14.586201 14.598573s11.088111 21.545267 14.586201 29.197147-43.755512 80.292153-43.755512 80.292153S94.090751-51.716486 59.317073-67.382116z m685.471057 226.277885s14.245981 34.949974 14.583109 58.394293-70.295842 9.052971-80.211737 7.299287-7.293101-21.89786-7.293101-21.89786 38.200631-37.476888 72.921729-43.79572z"  horiz-adv-x="1024" />

    
    <glyph glyph-name="praise" unicode="&#58893;" d="M884.875894 472.856747L646.970506 472.856747c92.185562 340.464205-63.516616 357.853247-63.516616 357.853247-65.993017 0-52.312436-52.182476-57.3031-60.881602 0-166.502152-176.849824-296.971645-176.849824-296.971645l0-472.171899c0-46.607504 63.516616-63.393819 88.433098-63.393819l357.452111 0c33.641191 0 61.036122 88.224344 61.036122 88.224344 88.434122 300.70569 88.434122 390.177444 88.434122 390.177444C944.657442 477.820805 884.875894 472.856747 884.875894 472.856747L884.875894 472.856747 884.875894 472.856747zM884.875894 472.856747M251.671415 472.700181L109.214912 472.700181c-29.420053 0-29.873378-28.89612-29.873378-28.89612l29.420053-476.202703c0-30.309306 30.361495-30.309306 30.361495-30.309306L262.420223-62.70794799999999c25.686009 0 25.458835 20.049638 25.458835 20.049638L287.879058 436.588729C287.879058 473.162716 251.671415 472.700181 251.671415 472.700181L251.671415 472.700181 251.671415 472.700181zM251.671415 472.700181"  horiz-adv-x="1024" />

    
    <glyph glyph-name="shiliangzhinengduixiang-" unicode="&#58937;" d="M839.094857 306.029714a47.396571 47.396571 0 0 1 52.516572 50.176s0 78.555429-77.531429 342.308572c0 0-23.990857 77.385143-53.540571 77.385143H446.902857c-21.796571 0-77.531429-14.628571-77.531428-55.588572v-414.281143s155.209143-114.395429 155.209142-260.534857c4.388571-7.606857-7.606857-53.394286 50.322286-53.394286 0 0 136.630857 14.628571 55.734857 313.929143z m0 0M283.648 306.176a30.72 30.72 0 0 1 31.744 31.744V758.345143s0 17.554286-22.381714 17.554286h-108.105143A26.038857 26.038857 0 0 1 158.281143 749.714286L132.388571 331.483429a25.453714 25.453714 0 0 1 26.185143-25.307429z m0 0"  horiz-adv-x="1024" />

    
    <glyph glyph-name="xiaolian" unicode="&#58897;" d="M0 384a512 512 0 1 1 1024 0A512 512 0 1 1 0 384zM1013.76 487.424C965.632 720.896 759.808 896 512 896 229.376 896 0 666.624 0 384c0-123.904 44.032-236.544 116.736-324.608 87.04-48.128 186.368-74.752 292.864-74.752 301.056 0 550.912 217.088 604.16 502.784zM204.8 558.08a92.16 92.16 0 1 1 184.32 0 92.16 92.16 0 1 1-184.32 0zM634.88 558.08a92.16 92.16 0 1 1 184.32 0 92.16 92.16 0 1 1-184.32 0zM512 117.76c-134.144 0-245.76 97.28-266.24 225.28-3.072 21.504 13.312 40.96 35.84 40.96h460.8c22.528 0 38.912-19.456 35.84-40.96-20.48-128-132.096-225.28-266.24-225.28zM742.4 384H281.6c-22.528 0-38.912-19.456-35.84-40.96 1.024-7.168 2.048-14.336 4.096-21.504H773.12c2.048 7.168 3.072 14.336 4.096 21.504C781.312 364.544 763.904 384 742.4 384zM587.776 260.096c-30.72 0-58.368-15.36-75.776-38.912-16.384 23.552-44.032 38.912-75.776 38.912-48.128 0-88.064-36.864-92.16-83.968C390.144 139.264 448.512 117.76 512 117.76c63.488 0 121.856 21.504 167.936 58.368-4.096 47.104-44.032 83.968-92.16 83.968z"  horiz-adv-x="1024" />

    
    <glyph glyph-name="lianxiaolianmanyi-" unicode="&#58898;" d="M512 810.667c235.648 0 426.667-191.019 426.667-426.667S747.648-42.667 512-42.667 85.333 148.352 85.333 384 276.352 810.667 512 810.667z m0-64c-200.299 0-362.667-162.368-362.667-362.667S311.701 21.333 512 21.333 874.667 183.701 874.667 384 712.299 746.667 512 746.667z m70.997-420.31l0.768 2.987a32 32 0 0 0 61.952-15.701 138.71 138.71 0 0 0-271.722-0.299 32 32 0 1 0 62.677 12.843 74.71 74.71 0 0 1 145.43-3.776l1.663 6.933-0.768-2.987z m-252.33 164.31a42.667 42.667 0 1 0 0-85.334 42.667 42.667 0 0 0 0 85.334z m362.666 0a42.667 42.667 0 1 0 0-85.334 42.667 42.667 0 0 0 0 85.334z"  horiz-adv-x="1024" />

    
    <glyph glyph-name="tupian" unicode="&#58899;" d="M778 712.2H247c-50.8 0-92-41.2-92-92v-435c-1.2-4.8-1.2-9.4 0-14v-23.6c0-50.8 41.2-92 92-92h531c50.8 0 92 41.2 92 92V620.2c0 50.8-41.2 92-92 92z m-531-56h531c19.8 0 36-16.2 36-36v-349.4c-20.8 28.2-46 59-72.2 83.4-15.6 14.6-35 20.6-56.2 17.6-33.4-4.8-70-32.6-111.8-84.8-10-12.4-19-24.8-26.4-35.4-36.8 50.8-109.2 144.6-170.6 187.8-18.2 12.8-38.6 15.8-59.4 9-22.6-7.4-44.6-26.6-67-58.6-13-18.4-26.2-41.2-39.6-68V620.2c0.2 20 16.2 36 36.2 36zM632 521.2a63 63 0 1 1 126 0 63 63 0 1 1-126 0z"  horiz-adv-x="1024" />

    
    <glyph glyph-name="liulan" unicode="&#58892;" d="M1030.79 401.475c-128.245 158.809-313.122 249.9-507.214 249.9-193.893 0-378.635-90.935-506.903-249.5a22.27 22.27 0 0 1-4.964-14.002v-28.605a22.27 22.27 0 0 1 4.964-14.002C144.918 186.724 329.683 95.79 523.576 95.79c194.092 0 378.946 91.091 507.214 249.9a22.234 22.234 0 0 1 4.941 13.98V387.45a22.31 22.31 0 0 1-4.941 14.025z m-39.58-33.837C871.669 223.076 701.685 140.333 523.576 140.333c-177.91 0-347.804 82.61-467.323 226.905v12.71C175.772 524.244 345.69 606.855 523.598 606.855c178.087 0 348.093-82.744 467.634-227.306v-11.91zM523.73 544.902c-94.452 0-171.297-76.845-171.297-171.32 0-94.453 76.845-171.297 171.297-171.297 25.957 0 50.911 5.654 74.13 16.806 11.085 5.32 15.76 18.61 10.417 29.696-5.32 11.086-18.654 15.717-29.696 10.419-17.163-8.237-35.617-12.422-54.828-12.422-69.922 0-126.776 56.877-126.776 126.776s56.877 126.798 126.776 126.798S650.529 443.48 650.529 373.56c0-11.888-1.647-23.641-4.875-34.95-3.383-11.82 3.45-24.13 15.271-27.537 11.776-3.361 24.131 3.45 27.537 15.271 4.385 15.294 6.59 31.166 6.59 47.216 0 94.497-76.845 171.342-171.32 171.342z m-80.54-140.244c-3.828-9.928-5.765-20.39-5.765-31.076 0-6.144 4.987-11.13 11.13-11.13s11.131 4.986 11.131 11.13c0 7.947 1.425 15.716 4.274 23.062 9.483 24.532 33.503 41.005 59.793 41.005 6.144 0 11.13 4.986 11.13 11.13s-4.986 11.13-11.13 11.13c-35.44 0.023-67.807-22.194-80.562-55.25z"  horiz-adv-x="1036" />

    
    <glyph glyph-name="liulan1" unicode="&#59110;" d="M524.8 619.52c-268.288 0-430.08-273.408-430.08-273.408s187.392-264.704 430.08-264.704 430.08 264.704 430.08 264.704-161.792 273.408-430.08 273.408z m275.968-374.272c-89.6-75.776-184.32-122.88-279.552-122.88s-189.952 44.544-279.552 122.88c-30.72 27.648-60.928 55.808-87.04 87.04-5.12 5.12-8.704 11.264-13.824 16.384 2.56 5.12 8.704 11.264 11.264 16.384 22.528 30.72 49.664 60.928 80.896 89.6C321.024 532.48 415.744 580.608 522.24 580.608s201.216-47.104 287.232-125.44c30.72-27.648 55.808-58.368 80.896-89.6 2.56-5.12 8.704-11.264 11.264-16.384-2.56-5.12-8.704-11.264-13.824-16.384-25.088-29.184-53.248-59.904-87.04-87.552zM522.24 513.536c-83.456 0-147.968-67.072-147.968-147.968 0-83.456 67.072-147.968 147.968-147.968 83.456 0 147.968 67.072 147.968 147.968S603.136 513.536 522.24 513.536z"  horiz-adv-x="1024" />

    
    <glyph glyph-name="pinglun" unicode="&#58889;" d="M844.8 822.4H179.2c-63.6 0-115.1-51.6-115.2-115.2v-454.9c0-63.5 51.7-115.2 115.2-115.2h352l180.3-180.3c7.5-7.5 17.3-11.2 27.2-11.2 9.8 0 19.7 3.7 27.2 11.2 15 15 15 39.3 0 54.3l-184 184c-12 12.1-28.3 18.8-45.3 18.8H179.2c-21.2 0-38.4 17.2-38.4 38.4V707.2c0 21.2 17.2 38.4 38.4 38.4h665.6c21.2 0 38.4-17.2 38.4-38.4v-454.9c0-21.2-17.2-38.4-38.4-38.4h-87c-21.2 0-38.4-17.2-38.4-38.4s17.2-38.4 38.4-38.4h87c63.5 0 115.2 51.7 115.2 115.2V707.2c0 63.5-51.7 115.2-115.2 115.2z"  horiz-adv-x="1024" />

    
    <glyph glyph-name="riqiqishu" unicode="&#58992;" d="M831.97 831.91H704.03V863.955a32.045 32.045 0 0 1-64.09 0V831.91H384.06V863.955a32.045 32.045 0 0 1-64.09 0V831.91H191.312A191.312 191.312 0 0 1 0 645.86v-586.851a191.312 191.312 0 0 1 191.312-186.051H831.97a191.312 191.312 0 0 1 191.313 191.312V640.12A191.312 191.312 0 0 1 831.97 831.91z m127.94-767.88a128.18 128.18 0 0 0-127.94-127.94H191.312a127.94 127.94 0 0 0-127.94 127.94V480.135H959.91z m0 479.955H64.09v95.656A127.94 127.94 0 0 0 191.312 768.06h127.94v-63.372a32.045 32.045 0 0 1 64.09 0V768.06h255.88v-63.372a32.045 32.045 0 0 1 64.09 0V768.06h127.94a128.18 128.18 0 0 0 127.94-127.94zM296.295 274.23400000000004H186.53a36.589 36.589 0 0 0 0 73.177h109.765a36.589 36.589 0 1 0 0-73.177z m292.47 0H442.41a36.589 36.589 0 0 0 0 73.177h146.354a36.589 36.589 0 0 0 0-73.177z m255.88 0H735.118a36.589 36.589 0 1 0 0 73.177h109.527a36.589 36.589 0 1 0 0-73.177z m-548.35-219.291H186.53a36.589 36.589 0 1 0 0 73.177h109.765a36.589 36.589 0 0 0 0-73.177z m292.47 0H442.41a36.589 36.589 0 0 0 0 73.177h146.354a36.589 36.589 0 0 0 0-73.177z m255.88 0H735.118a36.589 36.589 0 1 0 0 73.177h109.527a36.589 36.589 0 1 0 0-73.177z"  horiz-adv-x="1024" />

    
    <glyph glyph-name="riqi" unicode="&#59324;" d="M948.497067-123.2896H70.929067a36.6592 36.6592 0 0 0-36.6592 36.590933V702.464c0 20.2752 16.384 36.590933 36.6592 36.590933h73.386666a36.6592 36.6592 0 1 0 0-73.181866h-36.6592v-715.912534h804.181334V665.941333h-36.727467a36.6592 36.6592 0 1 0 0 73.181867h73.386667c20.2752 0 36.6592-16.384 36.6592-36.590933v-789.162667c0-20.206933-16.384-36.590933-36.6592-36.590933zM289.5872 827.5968a36.6592 36.6592 0 0 1-36.727467-36.6592v-146.568533a36.590933 36.590933 0 0 1 73.386667 0V791.005867a36.6592 36.6592 0 0 1-36.6592 36.590933z m440.32 0a36.6592 36.6592 0 0 1-36.727467-36.590933v-146.568534a36.590933 36.590933 0 0 1 73.386667 0V791.005867a36.6592 36.6592 0 0 1-36.727467 36.590933zM582.997333 739.1232H436.224a36.6592 36.6592 0 1 1 0-73.181867h146.773333a36.6592 36.6592 0 1 1 0 73.181867zM289.5872 468.855467H216.200533a36.6592 36.6592 0 1 1 0-73.181867h73.386667a36.6592 36.6592 0 1 1 0 73.181867zM289.450667 322.3552H216.064a36.6592 36.6592 0 1 1 0-73.181867H289.450667a36.6592 36.6592 0 1 1 0 73.181867z m513.774933 146.500267h-73.386667a36.6592 36.6592 0 1 1 0-73.181867h73.386667a36.6592 36.6592 0 1 1 0 73.181867z m0-146.500267h-73.386667a36.6592 36.6592 0 1 1 0-73.181867h73.386667a36.6592 36.6592 0 1 1 0 73.181867zM546.338133 468.855467H472.951467a36.6592 36.6592 0 1 1 0-73.181867h73.386666a36.6592 36.6592 0 1 1 0 73.181867z m0.068267-146.500267H473.019733a36.6592 36.6592 0 1 1 0-73.181867h73.386667a36.6592 36.6592 0 1 1 0 73.181867zM289.450667 175.786667H216.064a36.6592 36.6592 0 1 1 0-73.181867H289.450667a36.6592 36.6592 0 1 1 0 73.181867z m256.887466 0H472.951467a36.6592 36.6592 0 1 1 0-73.181867h73.386666a36.6592 36.6592 0 1 1 0 73.181867z"  horiz-adv-x="1024" />

    
    <glyph glyph-name="zuozhe" unicode="&#58918;" d="M512 810.666667c119.68 0 217.6-96 217.6-213.333334 0-94.208-61.653333-174.208-148.693333-202.666666 154.112-30.208 293.76-158.208 293.76-312.874667 0-66.858667-52.266667-120.490667-119.424-124.245333l-7.509334-0.213334H276.266667C205.525333-42.666667 149.333333 12.458667 149.333333 81.792c0 154.666667 139.605333 282.666667 293.76 312.874667C356.053333 423.125333 294.4 503.125333 294.4 597.333333c0 117.333333 97.92 213.333333 217.6 213.333334z m0-467.669334l-56.576-11.136C320.725333 305.450667 213.333333 196.181333 213.333333 81.792c0-31.744 24.149333-57.301333 56.746667-60.16l6.186667-0.298667h471.466666c35.669333 0 62.933333 26.752 62.933334 60.458667 0 111.36-101.674667 217.770667-231.253334 247.765333l-10.837333 2.304L512 342.997333zM512 746.666667c-84.608 0-153.6-67.626667-153.6-149.333334 0-61.952 38.570667-116.48 96.554667-138.965333l8.021333-2.858667 48.981333-16.042666 49.066667 16.042666c59.733333 19.498667 100.864 72.192 104.32 133.418667L665.6 597.333333c0 81.706667-68.992 149.333333-153.6 149.333334z"  horiz-adv-x="1024" />

    
    <glyph glyph-name="shangyi-12" unicode="&#58908;" d="M732.54 443.37c103.47-30.46 171.5-82.05 171.5-140.57 0-93.62-174.15-169.52-388.98-169.52S126.08 209.17 126.08 302.8c0 57.93 66.69 109.08 168.43 139.65M515.06 115.29c-106.32 0-206.55 18.17-282.24 51.15-80.44 35.05-124.74 83.48-124.74 136.37 0 33.55 18.23 66.08 52.72 94.06 30.99 25.15 75.43 46.87 128.53 62.83l10.36-34.48c-48.65-14.62-88.83-34.09-116.21-56.31-17.98-14.59-39.4-37.9-39.4-66.11 0-37.13 37.59-74.8 103.12-103.36 71.25-31.05 166.38-48.15 267.86-48.15 101.48 0 196.61 17.1 267.86 48.15C848.45 228 886.04 265.67 886.04 302.8c0 47.25-60.76 94.5-158.58 123.3l10.17 34.54c53.96-15.89 99.16-37.67 130.73-62.99 35.12-28.17 53.68-60.97 53.68-94.84 0-52.88-44.3-101.31-124.74-136.37-75.69-32.98-175.93-51.15-282.24-51.15zM324.11 602.64c39.07 64.57 109.97 107.72 190.95 107.72 123.18 0 223.03-99.85 223.03-223.03V345.53c-1.98-58.82-141.45-80.39-225.37-80.39-82.06 0-212.04 18.05-220.69 79.09V487.34c-0.01 42.2 11.71 81.66 32.08 115.3zM512.71 247.14c-24.11 0-86.29 1.69-142.68 17.31-58.63 16.24-90.87 42.24-95.83 77.26-0.12 0.84-0.18 1.68-0.18 2.52v143.1c0 44.04 11.99 87.13 34.68 124.63 21.09 34.85 50.89 64.02 86.17 84.35 36.39 20.97 77.95 32.05 120.18 32.05 64.38 0 124.91-25.07 170.43-70.6 45.53-45.52 70.6-106.05 70.6-170.43v-141.8c0-0.2 0-0.4-0.01-0.61-0.67-19.79-11.4-37.11-31.9-51.5-15.42-10.82-36.68-20.07-63.21-27.48-42.12-11.77-97.54-18.8-148.25-18.8z m-202.69 98.53c4.63-24.96 45.46-39.84 69.62-46.53 52.13-14.44 110.43-16 133.07-16 36.76 0 92.47 4.59 138.57 17.48 42.95 12 68 28.49 68.81 45.28V487.34c0 113.05-91.98 205.03-205.03 205.03-35.93 0-71.27-9.42-102.2-27.25-30.03-17.3-55.4-42.13-73.35-71.8-19.29-31.87-29.48-68.52-29.48-105.99v-141.66zM511.41 335.63c-32.5 0-81.45 2.81-130.03 16.18-47.34 13.04-82.1 32.84-103.31 58.86l27.9 22.74c16.16-19.82 45.54-36.04 84.96-46.89 34.88-9.6 77.66-14.89 120.47-14.89 49.09 0 87.24 3.92 120.06 12.34 40.34 10.35 70.89 27.22 93.39 51.58l26.44-24.43c-27.36-29.61-63.63-49.9-110.89-62.03-35.81-9.18-76.8-13.46-128.99-13.46z"  horiz-adv-x="1024" />

    
    <glyph glyph-name="issue" unicode="&#58886;" d="M110.652-1.809c-33.904 0-61.583 27.692-61.583 61.591v680.356c0 34.104 27.676 61.607 61.583 61.607h75.167c11.368 0 20.532 9.164 20.532 20.544 0 11.368-9.164 20.532-20.532 20.532h-75.167c-56.615 0-102.659-46.031-102.659-102.663v-680.16c0-56.635 46.043-102.711 102.659-102.711h298.628l-40.884 40.944-257.745-0.040zM816.16 740.138c0 56.643-46.023 102.659-102.659 102.659l-74.423-0c-11.38 0-20.532-9.172-20.532-20.532 0-11.38 9.152-20.544 20.532-20.544h74.423c33.92 0 61.611-27.688 61.611-61.603v-159.554l41.068-41.076-0 200.65h-0.020zM613.73 722.726h-403.323c-25.472 0-46.003-20.52-46.003-46.019 0-25.476 20.532-46.003 46.003-46.003h403.323c25.348 0 46.067 20.532 46.067 46.003-0.004 25.496-20.536 46.019-46.067 46.019v0 0zM534.931 822.645c0 40.508-32.844 73.355-73.343 73.355h-99.007c-40.504 0-73.307-32.848-73.307-73.355v-104.483h245.657l0 104.483zM412.077 757.55c-26.78 0-48.579 21.816-48.579 48.579 0 26.768 21.8 48.603 48.579 48.603 26.768 0 48.567-21.836 48.567-48.603 0-26.764-21.804-48.579-48.567-48.579v0 0zM638.722 519.74c0-12.496-22.832-22.592-51.051-22.592h-370.936c-28.188 0-51.059 10.1-51.059 22.592v0c0 12.472 22.86 22.572 51.059 22.572h370.936c28.22-0.024 51.051-10.1 51.051-22.572v0 0zM638.722 330.307c0-12.496-22.832-22.576-51.051-22.576h-370.936c-28.188 0-51.059 10.080-51.059 22.576v0c0 12.492 22.86 22.568 51.059 22.568h370.936c28.22 0 51.051-10.076 51.051-22.568v0 0zM596.091 140.921c0-12.5 19.796-22.62-8.42-22.62h-370.936c-28.188 0-51.059 10.12-51.059 22.62v0c0 12.448 22.86 22.572 51.059 22.572h370.936c28.22-0.004 8.42-10.124 8.42-22.572v0 0zM859.356 269.395c12.636 3.54 24.728 7.096 36.396 10.62 10.12 3.060 20.48 6.072 31.104 9.132 10.624 3.036 19.444 5.808 26.508 8.344l-10.62-40.212c-3.036-11.14-5.808-19.464-8.324-25.036-5.068-13.632-11.004-26.272-17.832-37.892-6.8-11.616-13.268-21.764-19.34-30.348-7.092-10.144-14.416-19.436-21.984-28.076l-93.267-28.048 76.583-13.656c-10.12-8.556-20.96-17.42-32.58-26.524-10.14-7.54-21.62-15.532-34.52-23.908-12.9-8.316-26.388-16.072-40.54-23.136-14.16-7.068-29.972-10.692-47.447-11.004-17.42-0.236-33.972 0.884-49.663 3.416-18.212 2.54-36.376 6.828-54.583 12.908 5.548 8.58 11.616 18.204 18.208 28.82 5.552 9.108 12.236 19.876 20.108 32.224 7.824 12.4 16.028 26.2 24.628 41.328 24.236 40.968 47.731 81.159 70.539 120.583 22.712 39.408 43.195 75.063 61.407 106.903 20.748 36.916 40.736 71.791 59.931 104.667-23.776-27.292-48.791-57.899-75.063-91.759-22.76-28.836-48.035-63.095-75.871-102.743-27.808-39.688-56.115-83.027-84.919-130.070-6.072-9.572-12.9-20.764-20.488-33.356-7.56-12.66-15.532-26.056-23.896-40.24-8.324-14.12-16.908-28.684-25.756-43.571-8.84-14.892-17.572-29.496-26.168-43.579-20.224-32.912-40.972-67.287-62.199-103.183 0.5 10.62 2.536 24.276 6.080 40.968 3 14.156 8.072 31.868 15.148 53.083 7.080 21.224 17.204 46.255 30.36 75.039 8.572 18.232 15.148 32.36 19.688 42.492 4.588 10.096 8.132 17.916 10.624 23.516 2.54 6.072 4.54 10.12 6.068 12.136-2.536 3.008-3.044 9.104-1.528 18.208 1.044 8.084 3.96 19.82 8.74 35.256 4.8 15.412 13.020 37.012 24.632 64.823 11.616 28.308 26.932 58.799 45.879 91.399s40.328 64.935 64.083 97.039c23.756 32.112 49.535 63.195 77.343 93.299 27.836 30.072 56.259 56.719 85.299 79.991 29.12 23.256 58.183 42.332 87.251 57.279 29.020 14.904 57.235 23.388 84.543 25.396 0.476-17.7-1.256-41.1-5.28-70.155-4.032-29.056-9.128-60.151-15.2-93.283-6.020-33.12-12.872-66.727-20.44-100.831-7.604-34.132-14.932-65.075-22.024-92.883l-101.619-55.375zM859.356 269.395z"  horiz-adv-x="1024" />

    
    <glyph glyph-name="plumage" unicode="&#58891;" d="M1122.844 847.928c-17.806 7.669-38.473 12.516-60.161 13.406-70.825 12.105-166.914-6.526-243.038-47.095 22.453 54.667-63.058 30.684-95.645 22.276-104.729-27.005-198.773-75.858-282.613-142.56 7.414 46.4-51.52 19.325-93.653-15.431-83.147-68.658-149.28-150.613-189.707-249.796-35.964-88.284-35.734-177.832-3.467-260.995 109.102 119.875 212.854 234.454 346.435 349.688 149.528 129.138 328.195 228.427 431.929 237.334-390.88-195.84-649.369-519.822-900.924-850.756h435.644v16.675h-389.653c7.396 3.253 13.867 7.36 20.249 14.329 28.996 31.591 52.818 67.876 83.52 97.956 38.684 37.813 41.014 34.613 74.293 35.484 64.764 1.654 130.222 6.4 193.831 18.008 135.307 24.694 250.738 86.116 339.040 192 22.027 26.418 43.448 71.395-13.529 69.618 20.089 9.44 34.364 15.182 47.662 22.542 103.644 57.422 199.805 123.324 260.747 227.413 16.445 28.088 35.2 81.76-20.303 71.272 30.613 29.724 60.817 54.24 84.889 83.538 35.734 43.448 26.329 73.582-25.547 95.093z"  horiz-adv-x="1213" />

    
    <glyph glyph-name="biji" unicode="&#58884;" d="M494.84443093 280.63553813c52.07017067 65.00150507 242.9366592 298.80002133 314.31762134 349.14601387-91.209008-178.45240747-270.69592213-361.90493013-378.11220267-536.90898133 198.4528704-55.17369067 288.4549536 10.1726496 397.94024747 86.553728l-108.45078614 17.06936c137.76181013 37.069824 128.10641387 23.27640107 176.38339414 78.10525653 38.27674773 43.44928213 70.00162027 102.07132907 81.72602986 163.4520608l-89.657248-9.13814293c28.62135253 13.6210048 92.24351467 37.7594944 102.4161632 51.20808213 27.06959253 35.8628992 98.10571947 378.80187307 98.96780907 450.01041813-273.97186027-2.06901333-711.74061547-472.42473067-743.465488-697.25752213-31.72487253-226.03971627-344.83556907-567.5993472 147.93445973 47.75972693zM178.97504853-120.40104498000005h912.2624992v-80.17426987H178.97504853z"  horiz-adv-x="1293" />

    
    <glyph glyph-name="mulu1" unicode="&#58885;" d="M323.072 868.864h-143.36C95.744 868.864 27.648 800.768 27.648 716.8v-143.36c0-83.968 68.096-152.064 152.064-152.064h295.424V716.8c0.512 83.968-68.096 152.064-152.064 152.064z m63.488-358.912H179.712c-34.816 0-63.488 28.672-63.488 63.488V716.8c0 34.816 28.672 63.488 63.488 63.488h143.36c34.816 0 63.488-28.672 63.488-63.488v-206.848zM845.824 868.864h-143.36c-83.968 0-152.064-68.096-152.064-152.064v-295.424h295.424c83.968 0 152.064 68.096 152.064 152.064V716.8c0 83.968-68.096 152.064-152.064 152.064zM909.312 573.44c0-34.816-28.672-63.488-63.488-63.488h-206.848V716.8c0 34.816 28.672 63.488 63.488 63.488h143.36c34.816 0 63.488-28.672 63.488-63.488v-143.36zM26.112 194.55999999999995v-143.36c0-83.968 68.096-152.064 152.064-152.064h143.36c83.968 0 152.064 68.096 152.064 152.064v295.424H178.176c-83.968 0-152.064-68.096-152.064-152.064z m359.424-143.36c0-34.816-28.672-63.488-63.488-63.488h-143.36c-34.816 0-63.488 28.672-63.488 63.488v143.36c0 34.816 28.672 63.488 63.488 63.488h206.848V51.200000000000045zM844.288 346.624h-295.424V51.200000000000045c0-83.968 68.096-152.064 152.064-152.064h143.36c83.968 0 152.064 68.096 152.064 152.064v143.36c0 83.968-68.096 152.064-152.064 152.064z m63.488-295.424c0-34.816-28.672-63.488-63.488-63.488h-143.36c-34.816 0-63.488 28.672-63.488 63.488v206.848h206.848c34.816 0 63.488-28.672 63.488-63.488v-143.36z"  horiz-adv-x="1024" />

    
    <glyph glyph-name="biaoti2-copy" unicode="&#58887;" d="M981.873319 896c0 0-409.638476-4.012382-447.792429-42.167357L29.841896 349.59467199999995c-37.734397-37.734397-37.734397-98.913751 0-136.648148l312.644447-312.64547c37.734397-37.734397 98.913751-37.734397 136.648148 0l504.238994 504.238994c38.153953 38.153953 40.60477 449.558654 40.60477 449.558654C1023.091049 876.940932 1004.719642 895.223311 981.873319 896zM757.75914 528.3978979999999L757.75914 528.3978979999999c-27.564785-27.564785-72.255615-27.564785-99.8204 0l0 0c-27.564785 27.564785-27.564785 72.255615 0 99.8204l0 0c27.564785 27.564785 72.255615 27.564785 99.8204 0l0 0C785.323926 600.653513 785.323926 555.962683 757.75914 528.3978979999999z"  horiz-adv-x="1024" />

    
    <glyph glyph-name="mulu" unicode="&#59018;" d="M889.744696 669.072696H346.935652c-24.798609 0-45.100522 20.702609-45.100522 46.035478s20.301913 46.057739 45.100522 46.057739h542.942609c24.798609 0 45.078261-20.72487 45.078261-46.057739-0.133565-25.310609-20.413217-46.035478-45.211826-46.035478z m0-329.97287H346.935652c-24.798609 0-45.100522 20.72487-45.100522 46.057739 0 25.310609 20.301913 46.035478 45.100522 46.035478h542.942609c24.798609 0 45.078261-20.702609 45.078261-46.035478-0.133565-25.33287-20.413217-46.057739-45.211826-46.057739z m0-329.950609H346.935652c-24.798609 0-45.100522 20.702609-45.100522 46.035479s20.301913 46.035478 45.100522 46.035478h542.942609c24.798609 0 45.078261-20.702609 45.078261-46.035478-0.133565-25.310609-20.413217-46.035478-45.211826-46.035479zM89.043478 713.97287c0-26.779826 21.25913-48.484174 47.460174-48.484174 26.223304 0 47.482435 21.704348 47.482435 48.484174C183.986087 740.730435 162.726957 762.434783 136.503652 762.434783 110.302609 762.434783 89.043478 740.730435 89.043478 713.97287zM89.043478 384c0-26.779826 21.25913-48.461913 47.460174-48.461913 26.223304 0 47.482435 21.682087 47.482435 48.461913s-21.25913 48.461913-47.482435 48.461913C110.302609 432.461913 89.043478 410.779826 89.043478 384z m0-329.97287C89.043478 27.269565 110.302609 5.565217 136.503652 5.565217c26.223304 0 47.482435 21.704348 47.482435 48.461913 0 26.779826-21.25913 48.484174-47.482435 48.484174-26.201043 0-47.460174-21.704348-47.460174-48.484174z"  horiz-adv-x="1024" />

    
    <glyph glyph-name="biji1" unicode="&#58888;" d="M282.60546875 64.82519531000003c-31.640625 0-57.34863281 25.70800781-57.34863281 57.34863281V581.35839844c0 31.640625 25.70800781 57.34863281 57.34863281 57.34863281h357.14355469c31.640625 0 57.34863281-25.70800781 57.34863281-57.34863281v-459.18457031c0-31.640625-25.70800781-57.34863281-57.34863281-57.34863282H282.60546875zM640.14453125 620.11816406c21.35742188 0 38.75976563-17.40234375 38.75976563-38.75976562v-459.18457031c0-21.35742188-17.40234375-38.75976563-38.75976563-38.75976563H282.60546875c-21.35742188 0-38.75976563 17.40234375-38.75976563 38.75976563V581.35839844c0 21.35742188 17.40234375 38.75976563 38.75976563 38.75976562h357.5390625m0 37.17773438H282.60546875c-41.92382813 0-75.9375-34.01367188-75.9375-75.9375v-459.18457031c0-41.92382813 34.01367188-75.9375 75.9375-75.9375h357.14355469c41.92382813 0 75.9375 34.01367188 75.9375 75.9375V581.35839844c0.39550781 41.92382813-34.01367188 75.9375-75.54199219 75.9375zM282.60546875 129.29296875c-31.640625 0-57.34863281 25.70800781-57.34863281 57.34863281V645.82617188c0 31.640625 25.70800781 57.34863281 57.34863281 57.34863281h357.14355469c31.640625 0 57.34863281-25.70800781 57.34863281-57.34863282v-459.18457031c0-31.640625-25.70800781-57.34863281-57.34863281-57.34863281H282.60546875zM640.14453125 684.5859375c21.35742188 0 38.75976563-17.40234375 38.75976563-38.75976563v-459.18457031c0-21.35742188-17.40234375-38.75976563-38.75976563-38.75976562H282.60546875c-21.35742188 0-38.75976563 17.40234375-38.75976563 38.75976562V645.82617188c0 21.35742188 17.40234375 38.75976563 38.75976563 38.75976562h357.5390625m0 37.17773437H282.60546875c-41.92382813 0-75.9375-34.01367188-75.9375-75.9375v-459.18457031c0-41.92382813 34.01367188-75.9375 75.9375-75.9375h357.14355469c41.92382813 0 75.9375 34.01367188 75.9375 75.9375V645.82617188c0.39550781 41.92382813-34.01367188 75.9375-75.54199219 75.93749999zM371.19921875 503.83886719c-10.28320313 0-18.58886719 8.30566406-18.58886719 18.58886718V584.52246094c0 10.28320313 8.30566406 18.58886719 18.58886719 18.58886718H551.55078125c10.28320313 0 18.58886719-8.30566406 18.58886719-18.58886718V522.42773438c0-10.28320313-8.30566406-18.58886719-18.58886719-18.58886719H371.19921875zM551.55078125 584.52246094V522.42773438H371.19921875V584.52246094H551.55078125m0 37.17773437H371.19921875c-20.56640625 0-37.17773438-16.61132813-37.17773438-37.17773437V522.42773438c0-20.56640625 16.61132813-37.17773438 37.17773438-37.17773438H551.55078125c20.56640625 0 37.17773438 16.61132813 37.17773438 37.17773437V584.52246094c0 20.56640625-16.61132813 37.17773438-37.17773438 37.17773437zM408.77246094 242.01269531000003h105.20507812M513.97753906 223.42382812000005H408.77246094c-10.28320313 0-18.58886719 8.30566406-18.58886719 18.58886719s8.30566406 18.58886719 18.58886719 18.58886719h105.60058593c10.28320313 0 18.58886719-8.30566406 18.58886719-18.58886719s-8.70117188-18.58886719-18.984375-18.58886718zM287.3515625 517.68164063c-10.28320313 0-18.58886719 8.30566406-18.58886719 18.58886718 0 23.73046875-19.37988281 43.11035156-43.11035156 43.11035156s-43.11035156-19.37988281-43.11035156-43.11035156c0-10.28320313-8.30566406-18.58886719-18.58886719-18.58886719s-18.58886719 8.30566406-18.58886719 18.58886719c0 44.296875 35.99121094 80.28808594 80.28808594 80.28808594 44.296875 0 80.28808594-35.99121094 80.28808594-80.28808594 0-10.28320313-8.30566406-18.58886719-18.58886719-18.58886718zM287.3515625 355.12792969c-10.28320313 0-18.58886719 8.30566406-18.58886719 18.58886719 0 23.73046875-19.37988281 43.11035156-43.11035156 43.11035156s-43.11035156-19.37988281-43.11035156-43.11035156c0-10.28320313-8.30566406-18.58886719-18.58886719-18.58886719s-18.58886719 8.30566406-18.58886719 18.58886719c0 44.296875 35.99121094 80.28808594 80.28808594 80.28808593 44.296875 0 80.28808594-35.99121094 80.28808594-80.28808593 0-10.28320313-8.30566406-18.58886719-18.58886719-18.58886719zM287.3515625 193.76074218999997c-10.28320313 0-18.58886719 8.30566406-18.58886719 18.58886718 0 23.73046875-19.37988281 43.11035156-43.11035156 43.11035157s-43.11035156-19.37988281-43.11035156-43.11035157c0-10.28320313-8.30566406-18.58886719-18.58886719-18.58886718s-18.58886719 8.30566406-18.58886719 18.58886718c0 44.296875 35.99121094 80.28808594 80.28808594 80.28808594 44.296875 0 80.28808594-35.99121094 80.28808594-80.28808593 0-10.28320313-8.30566406-18.58886719-18.58886719-18.58886719zM765.125 469.03417969c-10.28320313 0-18.58886719 8.30566406-18.58886719 18.58886718V658.08691406c0 10.28320313 8.30566406 18.58886719 18.58886719 18.58886719h30.45410156c10.28320313 0 18.58886719-8.30566406 18.58886719-18.58886719v-170.46386719c0-10.28320313-8.30566406-18.58886719-18.58886719-18.58886718H765.125zM795.97460938 658.08691406v-170.46386719H765.125V658.08691406h30.84960938m-1e-8 36.78222656H765.125c-20.56640625 0-37.17773438-16.61132813-37.17773438-37.17773437v-170.46386719c0-20.56640625 16.61132813-37.17773438 37.17773438-37.17773437h30.45410156c20.56640625 0 37.17773438 16.61132813 37.17773438 37.17773437V658.08691406c0 20.17089844-16.61132813 36.78222656-36.78222656 36.78222656zM765.125 129.29296875c-10.28320313 0-18.58886719 8.30566406-18.58886719 18.58886719V487.62304688c0 10.28320313 8.30566406 18.58886719 18.58886719 18.58886718h30.45410156c10.28320313 0 18.58886719-8.30566406 18.58886719-18.58886719v-339.74121093c0-10.28320313-8.30566406-18.58886719-18.58886719-18.58886719H765.125zM795.97460938 487.62304688v-339.74121094H765.125V487.62304688h30.84960938m-1e-8 37.17773437H765.125c-20.56640625 0-37.17773438-16.61132813-37.17773438-37.17773438v-339.74121093c0-20.56640625 16.61132813-37.17773438 37.17773438-37.17773438h30.45410156c20.56640625 0 37.17773438 16.61132813 37.17773438 37.17773438V487.62304688c0 20.56640625-16.61132813 37.17773438-36.78222656 37.17773437zM860.046875 518.86816406c-10.28320313 0-18.58886719 8.30566406-18.58886719 18.58886719V637.91601563c0 7.51464844-5.93261719 13.44726563-13.44726562 13.44726562-10.28320313 0-18.58886719 8.30566406-18.58886719 18.58886719s8.30566406 18.58886719 18.58886719 18.58886718c27.68554688 0 50.22949219-22.54394531 50.22949218-50.22949218v-100.45898438c0.39550781-10.67871094-7.91015625-18.984375-18.19335937-18.984375z"  horiz-adv-x="1024" />

    
    <glyph glyph-name="yumao" unicode="&#58939;" d="M155.52 125.653333c-24.32 37.546667-13.226667 149.333333 2.56 187.306667 0-42.666667 6.4-101.973333 11.946667-100.266667-4.053333 51.413333 73.386667 294.613333 159.146666 320a67.626667 67.626667 0 0 1 12.16-70.186666c-6.826667 17.92-1.493333 111.36 30.293334 153.813333S490.666667 716.16 525.013333 748.373333c-21.333333-61.866667-4.266667-88.106667-4.266666-88.106666a132.693333 132.693333 0 0 0 80.64 124.8 297.386667 297.386667 0 0 1 46.08 28.586666s-38.4-81.92-30.293334-100.266666c18.133333 19.413333 38.613333 96.64 78.08 120.96 18.346667 11.306667 132.906667 66.773333 195.84 61.226666a171.733333 171.733333 0 0 1-45.44-64A357.546667 357.546667 0 0 1 905.813333 891.733333 245.973333 245.973333 0 0 0 874.666667 832 485.333333 485.333333 0 0 1 944 885.12C920.32 833.706667 801.28 770.56 755.84 746.666667a2770.56 2770.56 0 0 1-271.36-192c-27.093333-26.666667-193.92-189.226667-264.746667-323.2-29.226667-56.533333-40.533333-92.16-64.213333-105.813334zM57.813333-128s0 44.586667-2.133333 76.373333c0 0 146.986667 218.026667 192 289.706667S426.666667 502.4 611.84 632.96C802.133333 768 746.666667 715.093333 912.64 827.093333c-74.88-77.013333-256-174.933333-306.346667-221.226666s-152.533333-106.666667-298.666666-315.306667S130.56-54.186667 123.093333-85.333333a448 448 0 0 1-65.28-42.666667zM213.333333 117.12a1299.626667 1299.626667 0 0 0 386.773334 466.986667c136.96 99.84 307.84 211.413333 347.093333 260.266666a59.733333 59.733333 0 0 0 19.2-38.4 224.64 224.64 0 0 0-69.973333-42.666666A577.706667 577.706667 0 0 1 968.32 789.333333a108.586667 108.586667 0 0 0-3.626667-31.36c-2.133333-8.533333-75.946667-34.56-101.546666-36.48 16-11.306667 77.44-1.493333 94.506666 14.933334-6.826667-21.333333-47.573333-59.306667-162.133333-64 21.333333-7.893333 115.84-8.533333 129.28 8.533333-13.653333-85.333333-75.306667-98.986667-140.373333-121.173333a187.093333 187.093333 0 0 1 74.666666 8.746666c-15.146667-21.333333-60.16-28.8-97.706666-33.92a142.08 142.08 0 0 1 65.706666 4.266667 356.053333 356.053333 0 0 0-201.173333-93.44c-91.306667-14.933333-125.44 15.146667-176-22.613333 42.666667 16.64 237.44-3.626667 254.506667 13.226666-40.96-128-234.666667-140.16-305.28-149.333333a494.08 494.08 0 0 1 166.826666 19.2 305.493333 305.493333 0 0 0-131.413333-78.506667 943.36 943.36 0 0 0-171.946667-44.586666c52.266667-8.96 106.666667-3.84 188.8 38.4C428.373333 187.306667 309.333333 128 213.333333 117.12z"  horiz-adv-x="1024" />

    
    <glyph glyph-name="biji2" unicode="&#58890;" d="M549.034667 379.093333a2379.136 2379.136 0 0 0 256 280.064c-83.370667-152.832-231.850667-297.6-329.130667-438.741333 139.690667-67.285333 204.074667-15.36 292.565333 40.96l-78.250666 23.381333c105.344 17.536 97.28 10.965333 130.944 51.925334a292.437333 292.437333 0 0 1 73.130666 138.922666h-66.56c23.424 12.416 73.130667 29.269333 77.525334 35.84a1998.805333 1998.805333 0 0 1 119.210666 384C829.184 914.304 470.784 534.826667 426.88 341.077333s-292.565333-459.946667 122.154667 38.016z m212.138666-172.586666a165.973333 165.973333 0 0 0 95.061334-131.498667c0-270.634667-855.765333-270.634667-855.765334 0 0 124.288 197.504 182.784 292.565334 197.418667a135.296 135.296 0 0 0-14.634667-51.2c-65.834667-14.634667-234.069333-58.496-234.069333-146.218667 0-203.264 760.704-203.264 760.704-0.725333 0 36.565333-29.269333 73.130667-87.765334 95.061333a193.578667 193.578667 0 0 0 43.904 37.290667z m0 0"  horiz-adv-x="1024" />

    
    <glyph glyph-name="zhuanye" unicode="&#58881;" d="M697.668 363.853c24.332 33.859 38.912 76.15 38.912 121.847 0 0.051-0 0.103-0 0.154 0 117.411-96.495 212.907-215.091 212.907-118.656 0-215.194-95.505-215.194-212.941 0-45.901 14.763-88.448 39.834-123.255l-99.618-177.51c-1.136-1.996-1.805-4.385-1.805-6.931 0-2.63 0.715-5.094 1.961-7.207 2.494-4.194 7.041-7.025 12.255-7.104l89.221-2.003 48.947-73.916c2.688-4.036 7.228-6.46 12.604-6.519 5.242 0.207 9.752 3.151 12.161 7.435l98.763 175.947 99.925-178.039c2.492-4.437 7.151-7.253 12.288-7.45h0.555c4.924 0 9.523 2.466 12.22 6.613l49.655 74.974 90.598 2.031c5.299 0.121 9.894 3.025 12.391 7.304 1.206 2.048 1.928 4.543 1.928 7.206 0 2.585-0.68 5.010-1.872 7.108l-100.639 179.359zM677.683 339.635l83.243-148.301-74.044-1.681c-4.804-0.119-9.259-2.56-11.895-6.554l-40.602-61.286-85.76 152.832c55.556 7.148 103.657 34.524 137.518 74.377zM493.15 274.799l-84.992-151.475-40.021 60.416c-2.592 3.865-6.918 6.393-11.839 6.462l-72.88 1.662 82.517 147.012c36.030-37.299 85.284-61.621 140.188-65.394zM512-128c-282.769 0-512 229.231-512 512s229.231 512 512 512 512-229.231 512-512-229.231-512-512-512zM521.489 664.474c99.473 0 180.437-80.137 180.437-178.628 0-98.458-80.964-178.577-180.437-178.577-99.558 0-180.548 80.119-180.548 178.577 0 98.492 80.99 178.628 180.548 178.628zM521.489 359.458c70.4 0 127.693 56.721 127.693 126.362 0 69.717-57.293 126.421-127.693 126.421-70.46 0-127.753-56.695-127.753-126.421 0-69.666 57.293-126.362 127.744-126.362zM521.489 579.806c52.326 0 94.891-42.155 94.891-93.952 0-51.789-42.564-93.909-94.891-93.909-52.361 0-94.95 42.121-94.95 93.909 0 51.797 42.59 93.952 94.942 93.952z"  horiz-adv-x="1024" />

    
    <glyph glyph-name="xuexiao" unicode="&#59189;" d="M760.08575 433.617048v-446.553429h-49.618071V632.083192h99.239212L511.998465 830.558545 214.291063 632.083192h99.240235v-645.019573h-49.619094V433.617048H65.445036v-496.175593h893.108904V433.617048H760.08575z m-645.028783-99.240235h99.234096v-49.606815h-99.234096v49.606815z m0-99.226933h99.234096v-49.620117h-99.234096v49.620117z m0-99.241258h99.234096v-49.620118h-99.234096v49.620118z m396.941498 446.561615c54.81442 0 99.240235-44.425815 99.240235-99.233072 0-54.81442-44.425815-99.241258-99.240235-99.241258-54.813397 0-99.234095 44.426839-99.234095 99.241258 0 54.807257 44.419675 99.233072 99.234095 99.233072zM412.76437-12.936381V235.14988h198.47433v-248.086261H412.76437z m396.942521 347.313194h99.226932v-49.606815h-99.226932v49.606815z m0-99.226933h99.226932v-49.620117h-99.226932v49.620117z m0-99.241258h99.226932v-49.620118h-99.226932v49.620118z"  horiz-adv-x="1024" />

    
    <glyph glyph-name="youxiang" unicode="&#58883;" d="M677.288 359.097l-167.315-156.052-170.532 156.052-246.146-230.058h831.748l-247.756 230.058zM954.002 608.4590000000001v-423.114l-238.1 209.145 238.1 213.969zM64.336 605.244l231.666-212.361-231.666-207.534v419.895zM93.294 661.55l418.287-389.33 413.461 389.33h-831.748z"  horiz-adv-x="1024" />

    
    <glyph glyph-name="ziyuan" unicode="&#58938;" d="M1024 384A512 512 0 1 0 512 896a512 512 0 0 0 512-512zM805.968879 683.515462l-58.99547-87.535159L630.29348 429.885365 482.048454 617.763246 403.387827 548.582234l20.169392-43.565886-80.677566-122.529052-100.846957 88.947016 31.262557-235.376798 1.210164-132.311207-10.790625-10.084696L484.065393-127.294071c9.27792 0 18.55584-0.705929 27.934607-0.705929a511.798306 511.798306 0 0 1 504.234784 600.644475zM587.332677 396.706717l-107.805397 17.143982-21.782943 53.549734c-13.210951 28.438842-20.169391 36.103211-39.128619 46.3896a54.659051 54.659051 0 0 1-73.819972-22.690565 352.964349 352.964349 0 0 1-42.960804-168.918653 54.457357 54.457357 0 0 1 68.777624-52.642111 32.271026 32.271026 0 0 1 9.378767 0 143.606067 143.606067 0 0 0 47.095529-3.731337h0.705929c3.63049-1.00847 20.169391-6.655899 23.396494-7.96691m50.423478 7.059287l-24.808351 53.045499c-8.26945 8.773685-55.970061 11.093165-65.752216 12.000788a238.402206 238.402206 0 0 0 10.084696 62.726807l16.740595-25.312586a31.262557 31.262557 0 0 1 11.194012-10.084696l93.182588-8.773685M502.621233 575.306677a55.163285 55.163285 0 1 0-55.163285 55.163286 55.163285 55.163285 0 0 0 55.163285-55.163286zM615.166437 680.288359a330.979712 330.979712 0 0 0 17.54737-107.502856c0-138.160331-81.383494-251.411463-185.054165-262.807169v-207.038803h356.393145V680.288359zM273.295253 87.711641a15.127044 15.127044 0 0 0-15.22789 15.22789V249.974394l-37.817609 211.77861a15.127044 15.127044 0 1 0 30.254087 5.344888l38.12015-213.190466a24.707504 24.707504 0 0 0 0-2.722868v-148.245027a15.127044 15.127044 0 0 0-15.328738-15.22789zM425.574158 94.468387a15.328737 15.328737 0 0 0-14.92535 12.101635L384.226906 236.057514h-110.931653a15.22789 15.22789 0 0 0 0 30.254087h123.335828a15.22789 15.22789 0 0 0 14.92535-12.202481l28.943077-141.18574a15.22789 15.22789 0 0 0-14.92535-18.253299z"  horiz-adv-x="1024" />

    
    <glyph glyph-name="ziyuan1" unicode="&#58945;" d="M513.026264 383.977277m-22.686864-511.421222a511.924174 511.924174 0 1 1 45.373727 1022.842445 511.924174 511.924174 0 1 1-45.373727-1022.842445ZM835.79175 554.179446v-146.811423L600.953971 661.565549l-63.524173-90.748819 71.792399-88.429683-52.432651-52.432651-147.517248-27.022982-140.257342 103.050326 91.454644-165.162852-5.44493-24.603013-127.048347 2.722465-33.173735-209.93227-21.073893-11.49485 207.613133-208.218125a512.125838 512.125838 0 0 1 643.207467 475.725479zM626.262809 620.930245a54.953452 54.953452 0 1 0-54.953452 54.953452A54.953452 54.953452 0 0 0 626.262809 620.930245zM787.594044 376.916752l-78.548145 149.433056A51.021003 51.021003 0 0 1 652.680799 553.171126a25.510501 25.510501 0 0 1-27.325478-7.159073L541.463079 452.339104l-110.915224-18.45226a26.720486 26.720486 0 0 1-21.477221-30.249606A26.317158 26.317158 0 0 1 434.681968 380.345041a20.166404 20.166404 0 0 1 4.134113 0l119.485945 20.166404a25.712166 25.712166 0 0 1 14.923139 8.268226l50.416011 55.86094 58.986733-112.125208H575.846798a25.208005 25.208005 0 0 1-20.166404-10.083202 27.325478 27.325478 0 0 1-5.444929-22.183045l36.501191-189.160873A26.115494 26.115494 0 0 1 612.549654 109.510231a29.44295 29.44295 0 0 1 5.041601 0 26.821318 26.821318 0 0 1 20.166404 31.560422l-30.249606 157.09629h124.023387a49.306859 49.306859 0 0 1 10.789026-1.310816 50.416011 50.416011 0 0 1 12.200675 1.51248 25.107173 25.107173 0 0 1 14.418979 6.352418A54.550124 54.550124 0 0 1 787.594044 376.916752zM526.237443 92.267955l-40.332808 209.730605H239.572006l-30.249607-209.125613-30.249606 4.335777 31.661254 221.830448a15.023971 15.023971 0 0 0 15.023972 12.906498h272.246458a15.124803 15.124803 0 0 0 14.822307-12.301506l42.248618-221.830448zM836.195078 239.079378H652.479135a10.083202 10.083202 0 0 0 0 20.166405h173.632741V534.315538a10.083202 10.083202 0 0 0 20.166404 0v-285.152957a10.083202 10.083202 0 0 0-10.083202-10.083203zM744.337106 99.427028a10.083202 10.083202 0 0 0-10.083202 10.083203V238.67605a10.083202 10.083202 0 0 0 20.166405 0V109.510231a10.083202 10.083202 0 0 0-10.083203-10.083203zM808.768768 99.427028H675.771332a10.083202 10.083202 0 0 0 0 20.166405H808.768768a10.083202 10.083202 0 0 0 0-20.166405zM485.097978 340.818888H360.4696a8.671554 8.671554 0 0 0-7.46157 4.537441l-83.993074 160.625411a8.369058 8.369058 0 0 0 3.629953 11.293186 8.268226 8.268226 0 0 0 11.293186-3.52912l81.673938-156.08797H485.097978a8.369058 8.369058 0 0 0 8.369058-8.369058 8.46989 8.46989 0 0 0-8.369058-8.46989z"  horiz-adv-x="1026" />

    
    <glyph glyph-name="xuexiao1" unicode="&#59108;" d="M949.333333 546.133333l-64 106.666667c-6.4 8.533333-14.933333 14.933333-25.6 14.933333H151.466667c-10.666667 0-19.2-6.4-25.6-14.933333l-49.066667-104.533333M76.8 518.4c-4.266667 0-6.4 0-10.666667 2.133333-12.8 6.4-19.2 21.333333-12.8 34.133334l49.066667 106.666666c10.666667 19.2 29.866667 29.866667 51.2 29.866667H853.333333c21.333333 0 40.533333-10.666667 53.333334-27.733333l64-106.666667c8.533333-12.8 4.266667-27.733333-8.533334-36.266667-12.8-8.533333-27.733333-4.266667-36.266666 8.533334l-64 106.666666c0 4.266667-2.133333 4.266667-4.266667 4.266667H151.466667s-2.133333 0-2.133334-2.133333L100.266667 533.333333c-4.266667-8.533333-12.8-14.933333-23.466667-14.933333zM501.333333 605.866667V808.533333M501.333333 580.266667c-14.933333 0-25.6 10.666667-25.6 25.6V808.533333c0 14.933333 10.666667 25.6 25.6 25.6s25.6-10.666667 25.6-25.6v-200.533333c0-14.933333-12.8-27.733333-25.6-27.733333zM501.333333 870.4h44.8c21.333333 0 51.2-32 96-32s59.733333 12.8 59.733334 12.8v-108.8s-14.933333-12.8-59.733334-12.8S552.533333 768 537.6 768h-36.266667V870.4zM640 701.866667c-34.133333 0-66.133333 19.2-89.6 32-6.4 2.133333-12.8 6.4-14.933333 8.533333h-34.133334c-14.933333 0-25.6 10.666667-25.6 25.6V870.4c0 14.933333 10.666667 25.6 25.6 25.6h44.8c14.933333-2.133333 29.866667-6.4 44.8-14.933333 14.933333-10.666667 34.133333-14.933333 51.2-17.066667 14.933333 0 29.866667 2.133333 42.666667 6.4 6.4 6.4 17.066667 8.533333 25.6 4.266667 8.533333-4.266667 14.933333-14.933333 14.933333-25.6v-108.8c0-6.4-2.133333-14.933333-8.533333-19.2-4.266667-4.266667-25.6-19.2-76.8-19.2z m-113.066667 91.733333h10.666667c12.8 0 23.466667-6.4 40.533333-17.066667 17.066667-10.666667 42.666667-25.6 64-25.6 10.666667 0 21.333333 0 32 4.266667V814.933333c-10.666667-2.133333-23.466667-4.266667-34.133333-4.266666-27.733333 2.133333-53.333333 8.533333-76.8 23.466666-6.4 4.266667-12.8 6.4-19.2 8.533334h-19.2v-49.066667zM76.8-4.266667V546.133333h872.533333v-550.4m0 550.4v-550.4M949.333333-32c-14.933333 0-25.6 10.666667-25.6 25.6V546.133333c0 14.933333 10.666667 25.6 25.6 25.6s25.6-10.666667 25.6-25.6v-550.4c0-14.933333-10.666667-27.733333-25.6-27.733333zM76.8-4.266667V546.133333M76.8-32c-14.933333 0-25.6 10.666667-25.6 25.6V546.133333c0 14.933333 12.8 25.6 27.733333 23.466667 12.8 0 23.466667-10.666667 23.466667-23.466667v-550.4c2.133333-14.933333-10.666667-27.733333-25.6-27.733333zM949.333333 2.133333h51.2v-104.533333H25.6v104.533333h51.2M1000.533333-128H25.6C10.666667-128 0-117.333333 0-102.4v104.533333c0 14.933333 10.666667 25.6 25.6 25.6h51.2c14.933333 0 25.6-10.666667 25.6-25.6s-10.666667-25.6-25.6-25.6H51.2v-51.2h923.733333v51.2h-25.6c-14.933333 0-25.6 10.666667-25.6 25.6s10.666667 25.6 25.6 25.6h51.2c14.933333 0 25.6-10.666667 25.6-25.6v-104.533333c2.133333-14.933333-10.666667-25.6-25.6-25.6zM957.866667-23.466667H76.8c-8.533333 0-17.066667 6.4-19.2 14.933334s6.4 17.066667 14.933333 19.2h883.2c8.533333 0 17.066667-8.533333 14.933334-19.2 2.133333-8.533333-4.266667-14.933333-12.8-14.933334zM612.266667-6.4V170.666667c0 55.466667-44.8 100.266667-100.266667 100.266666s-100.266667-44.8-100.266667-100.266666v-177.066667h200.533334zM612.266667-23.466667h-198.4c-8.533333 0-17.066667 8.533333-17.066667 17.066667V170.666667c2.133333 64 55.466667 115.2 119.466667 113.066666 61.866667-2.133333 110.933333-51.2 113.066666-113.066666v-177.066667c0-10.666667-6.4-17.066667-17.066666-17.066667z m-181.333334 34.133334h164.266667V170.666667c-2.133333 44.8-40.533333 81.066667-85.333333 78.933333-42.666667-2.133333-76.8-36.266667-78.933334-78.933333v-160zM181.333333 450.133333H320v-138.666666H181.333333v138.666666zM320 294.4H181.333333c-8.533333 0-17.066667 8.533333-17.066666 17.066667v138.666666c0 8.533333 8.533333 17.066667 17.066666 17.066667H320c8.533333 0 17.066667-8.533333 17.066667-17.066667v-138.666666c0-8.533333-8.533333-17.066667-17.066667-17.066667z m-121.6 34.133333h104.533333v104.533334H198.4v-104.533334zM181.333333 226.133333H320v-138.666666H181.333333v138.666666zM320 70.4H181.333333c-8.533333 0-17.066667 8.533333-17.066666 17.066667v138.666666c0 8.533333 8.533333 17.066667 17.066666 17.066667H320c8.533333 0 17.066667-8.533333 17.066667-17.066667v-138.666666c0-8.533333-8.533333-17.066667-17.066667-17.066667z m-121.6 34.133333h104.533333v104.533334H198.4v-104.533334zM708.266667 450.133333h138.666666v-138.666666h-138.666666v138.666666zM846.933333 294.4h-138.666666c-8.533333 0-17.066667 8.533333-17.066667 17.066667v138.666666c0 8.533333 8.533333 17.066667 17.066667 17.066667h138.666666c8.533333 0 17.066667-8.533333 17.066667-17.066667v-138.666666c0-8.533333-8.533333-17.066667-17.066667-17.066667zM725.333333 328.533333h104.533334v104.533334H725.333333v-104.533334zM708.266667 226.133333h138.666666v-138.666666h-138.666666v138.666666zM846.933333 70.4h-138.666666c-8.533333 0-17.066667 8.533333-17.066667 17.066667v138.666666c0 8.533333 8.533333 17.066667 17.066667 17.066667h138.666666c8.533333 0 17.066667-8.533333 17.066667-17.066667v-138.666666c0-8.533333-8.533333-17.066667-17.066667-17.066667zM725.333333 104.533333h104.533334v104.533334H725.333333v-104.533334zM430.933333 403.2c0-44.8 36.266667-81.066667 81.066667-81.066667s81.066667 36.266667 81.066667 81.066667c0 44.8-36.266667 81.066667-81.066667 81.066667-42.666667 0-81.066667-36.266667-81.066667-81.066667zM514.133333 302.933333c-55.466667 0-100.266667 44.8-100.266666 100.266667s44.8 100.266667 100.266666 100.266667 100.266667-44.8 100.266667-100.266667c-2.133333-55.466667-46.933333-100.266667-100.266667-100.266667z m0 164.266667c-36.266667 0-64-29.866667-64-64 0-36.266667 29.866667-64 64-64 36.266667 0 64 29.866667 64 64 0 36.266667-27.733333 64-64 64zM509.866667 433.066667v-34.133334h34.133333M544 390.4h-34.133333c-4.266667 0-8.533333 4.266667-8.533334 8.533333v34.133334c0 4.266667 4.266667 8.533333 8.533334 8.533333s6.4-4.266667 8.533333-8.533333v-25.6h25.6c4.266667 0 8.533333-4.266667 8.533333-8.533334 0-6.4-4.266667-8.533333-8.533333-8.533333z m388.266667 130.133333H76.8c-8.533333 0-17.066667 6.4-19.2 14.933334 0 8.533333 6.4 17.066667 14.933333 19.2h857.6c8.533333 0 17.066667-8.533333 14.933334-19.2 2.133333-8.533333-4.266667-14.933333-12.8-14.933334z"  horiz-adv-x="1026" />

    
    <glyph glyph-name="book" unicode="&#58923;" d="M96 800v-832a80 80 0 0 1 80-80h688V720M816 720c-40.448 49.024-39.824 102.432 0 160H176a80.064 80.064 0 0 1-56.576-23.424 80.064 80.064 0 0 1 0-113.152A80.064 80.064 0 0 1 176 720h640M96 752l80-32v-816c-28.16 2.144-55.248 18-80 64V752zM192 720V880s-57.568-8.432-72.576-23.424a80.064 80.064 0 0 1 0-113.152C134.432 728.432 192 720 192 720M272 608h496v-592H272zM528 560l28.592-88 55.104 27.2-8.832-60.816h92.528L620.528 384l42.896-44-60.56-10.384 28.592-88-74.864 54.384L528 241.616 499.408 296l-74.864-54.384 28.592 88-60.56 10.384L435.472 384l-74.864 54.384h92.528l-8.832 60.816 55.104-27.2L528 560z"  horiz-adv-x="1024" />

    
    <glyph glyph-name="calendar" unicode="&#58925;" d="M184.032 768H16v-864h992V768H839.616M1008 768H48a32 32 0 0 1-32-32v-128h992V768zM576 800a63.92 63.92 0 0 1-18.752 45.248 63.92 63.92 0 0 1-90.496 0A63.92 63.92 0 0 1 448 800v-64c0-16.976 6.736-33.248 18.752-45.248a63.92 63.92 0 0 1 90.496 0A63.92 63.92 0 0 1 576 736V800zM576 827.52c-0.096-10.016-35.632 40.064-34.32 30.704 22.32-159.216-26.24-178.96-89.68-160.144-11.696 3.472 41.632-21.76 28-26.08h32a64 64 0 0 1 64 64V827.52zM848 800a63.92 63.92 0 0 1-18.752 45.248 63.92 63.92 0 0 1-90.496 0A63.92 63.92 0 0 1 720 800v-64c0-16.976 6.736-33.248 18.752-45.248a63.92 63.92 0 0 1 90.496 0A63.92 63.92 0 0 1 848 736V800zM848 827.52c-0.096-10.016-35.632 40.064-34.32 30.704 22.32-159.216-26.24-178.96-89.68-160.144-11.696 3.472 41.632-21.76 28-26.08h32a64 64 0 0 1 64 64V827.52zM304 800a63.92 63.92 0 0 1-18.752 45.248 63.92 63.92 0 0 1-90.496 0A63.92 63.92 0 0 1 176 800v-64c0-16.976 6.736-33.248 18.752-45.248a63.92 63.92 0 0 1 90.496 0A63.92 63.92 0 0 1 304 736V800zM304 827.52c-0.096-10.016-35.632 40.064-34.32 30.704 22.32-159.216-26.24-178.96-89.68-160.144-11.696 3.472 41.632-21.76 28-26.08h32a64 64 0 0 1 64 64V827.52zM566.64 345.584c0-103.424-111.616-120.832-111.616-226.304v-44.032h162.816v51.2h-106.496c-0.512 2.56-0.512 5.12-0.512 7.68 0 58.88 112.128 100.864 112.128 213.504 0 57.344-28.672 90.112-83.968 90.112-55.296 0-83.968-32.768-83.968-90.112v-34.816h53.248v38.4c0 25.6 11.264 35.328 29.184 35.328s29.184-8.704 29.184-40.96z m88.576-154.624v-29.696c0-57.344 28.672-90.112 83.968-90.112 55.296 0 83.968 32.768 83.968 90.112v79.872c0 52.736-20.992 81.92-62.464 81.92-22.528 0-38.912-9.216-49.152-26.112l4.608 85.504h97.792v51.2h-148.48l-10.24-207.872h53.248v10.752c0 25.6 11.264 35.328 29.184 35.328s29.184-9.728 29.184-35.328v-78.848c0-25.6-11.264-34.816-29.184-34.816s-29.184 9.216-29.184 34.816v33.28h-53.248z"  horiz-adv-x="1024" />

    
    <glyph glyph-name="candy" unicode="&#58927;" d="M745.408 686.944c-13.392 71.152-11.68 124.544 0 192.88C944.048 883.616 870.208 764.336 1008 622.656c-62.816-20.08-128.576-19.232-196.944 0M1008 623.92l-64-16c-61.552 7.216-28.784 240.816-208 272l144-32 48-128 80-96zM272.64 80.96c13.376-71.136 15.376-192.32 0-190.144C141.088-90.496 187.376 18.4 64 145.264c62.816 20.064 80.576 19.232 148.944 0M783.536 655.44c68.72-68.736 68.72-180.176 0-248.896L489.376 112.384c-68.736-68.736-180.176-68.736-248.912 0l-0.016 0.016a175.952 175.952 0 0 0 0 248.864l294.208 294.192a175.936 175.936 0 0 0 248.88-0.016zM333.84 62.624a175.52 175.52 0 0 0-45.344 32.768l-0.032 0.016c-68.72 68.736-68.72 180.176 0 248.912l294.192 294.176a175.984 175.984 0 0 0 155.504 48.768 175.904 175.904 0 0 0 45.344-32.768l0.032-0.032c68.72-68.72 68.72-180.16 0-248.896l-54.736-54.736-239.456-239.44a175.92 175.92 0 0 0-155.504-48.768zM320 72V376.816l112 112v-414.688a175.2 175.2 0 0 0-98.16-10.544L320 72zM432 74.128V488.816l48 48v-432.128a172.784 172.784 0 0 0-48-30.56zM688 689.12v-378.112l-112-112V632.816l6.656 6.64c28.432 28.432 65.584 46.144 105.344 49.664zM736 688.432v-329.424l-7.2-7.2-40.8-40.8V689.12l19.072 1.888 28.928-2.576z"  horiz-adv-x="1024" />

    
    <glyph glyph-name="cart" unicode="&#58928;" d="M975.6 369.088h-928l43.68-436.768a48 48 0 0 1 47.76-43.232h745.12a48 48 0 0 1 47.76 43.232l43.68 436.768zM47.6 369.088h928v-64h-928zM1007.6 561.088a32 32 0 0 1-32 32h-928a32 32 0 0 1-32-32v-160a32 32 0 0 1 32-32h928a32 32 0 0 1 32 32v160zM1007.6 561.088v-160a32 32 0 0 0-32-32h-928v32h896a32 32 0 0 1 32 32v128h32zM975.6 561.088v-128a32 32 0 0 0-32-32h-896v128a32 32 0 0 0 32 32h896zM511.28 471.696a75.712 75.712 0 0 0-15.664 30 80.032 80.032 0 0 0 7.984 60.704l153.248 265.408a79.952 79.952 0 0 0 109.28 29.28 80 80 0 0 0 37.264-48.576l0.336-2.016a75.84 75.84 0 0 1-21.6 18.592 80.032 80.032 0 0 1-109.28-29.28L519.6 530.4a79.12 79.12 0 0 1-8.32-58.704zM511.28 471.696a79.12 79.12 0 0 0 8.32 58.704l153.248 265.408a79.952 79.952 0 0 0 109.28 29.28 75.84 75.84 0 0 0 21.6-18.592 79.072 79.072 0 0 0-8.32-58.688L642.16 482.4a79.952 79.952 0 0 0-109.28-29.28 76.016 76.016 0 0 0-21.6 18.576zM252.944 286.432c8.096-1.68 14.976-5.776 20.608-11.392 8.992-9.008 14.048-21.216 14.048-33.952v-208a48.048 48.048 0 0 0-48-48 48 48 0 0 0-33.936 14.064 40.768 40.768 0 0 0-11.408 20.592l13.344-2.656a48 48 0 0 1 48 48v208l-2.656 13.344zM252.944 286.432l2.656-13.344v-208a48.048 48.048 0 0 0-48-48l-13.344 2.656-2.656 13.344v208a48 48 0 0 0 48 48l13.344-2.656zM428.944 286.432c8.096-1.68 14.976-5.776 20.608-11.392 8.992-9.008 14.048-21.216 14.048-33.952v-208a48.048 48.048 0 0 0-48-48 48 48 0 0 0-33.936 14.064 40.768 40.768 0 0 0-11.408 20.592l13.344-2.656a48 48 0 0 1 48 48v208l-2.656 13.344zM428.944 286.432l2.656-13.344v-208a48.048 48.048 0 0 0-48-48l-13.344 2.656-2.656 13.344v208a48 48 0 0 0 48 48l13.344-2.656zM620.944 286.432c8.096-1.68 14.976-5.776 20.608-11.392 8.992-9.008 14.048-21.216 14.048-33.952v-208a48.048 48.048 0 0 0-48-48 48 48 0 0 0-33.936 14.064 40.768 40.768 0 0 0-11.408 20.592l13.344-2.656a48 48 0 0 1 48 48v208l-2.656 13.344zM620.944 286.432l2.656-13.344v-208a48.048 48.048 0 0 0-48-48l-13.344 2.656-2.656 13.344v208a48 48 0 0 0 48 48l13.344-2.656zM796.944 286.432c8.096-1.68 14.976-5.776 20.608-11.392 8.992-9.008 14.048-21.216 14.048-33.952v-208a48.048 48.048 0 0 0-48-48 48 48 0 0 0-33.936 14.064 40.768 40.768 0 0 0-11.408 20.592l13.344-2.656a48 48 0 0 1 48 48v208l-2.656 13.344zM796.944 286.432l2.656-13.344v-208a48.048 48.048 0 0 0-48-48l-13.344 2.656-2.656 13.344v208a48 48 0 0 0 48 48l13.344-2.656z"  horiz-adv-x="1024" />

    
    <glyph glyph-name="chat" unicode="&#58931;" d="M355.76 810.32A175.808 175.808 0 0 0 496 880c67.616 0 126.368-38.208 155.84-94.192a31.712 31.712 0 0 1 47.872-9.744C731.712 801.264 772.144 816 816 816c105.968 0 192-86.032 192-192s-86.032-192-192-192c-93.36 0-171.232 66.768-188.448 155.12a175.632 175.632 0 0 0-140.144-58.912C459.44 426.672 366.368 352 256 352 123.536 352 16 459.536 16 592S123.536 832 256 832c35.584 0 69.376-7.76 99.76-21.68zM16 495.2A128.864 128.864 0 0 0 144.8 624h734.4A128.864 128.864 0 0 0 1008 495.2v-305.6a128.864 128.864 0 0 0-128.8-128.8h-161.6L809.6-112 568.8 60.8H144.8A128.864 128.864 0 0 0 16 189.6v305.6zM144.8 60.8c-21.408 0 459.952 30.704 678.288 44.56A112 112 0 0 1 928 217.136V483.936a144 144 0 0 1-42.688 102.32L847.2 624C918.288 624 1008 566.288 1008 495.2v-305.6a128.864 128.864 0 0 0-128.8-128.8h-161.6L809.6-112 568.8 60.8H144.8zM288 344m-56 0a56 56 0 1 1 112 0 56 56 0 1 1-112 0ZM288 344m-56 0a56 56 0 1 1 112 0 56 56 0 1 1-112 0ZM512 344m-56 0a56 56 0 1 1 112 0 56 56 0 1 1-112 0ZM736 344m-56 0a56 56 0 1 1 112 0 56 56 0 1 1-112 0ZM585.616 670.688A120.064 120.064 0 0 0 472 512a119.408 119.408 0 0 0-74.272 25.776A144.048 144.048 0 0 0 272 464c-79.472 0-144 64.528-144 144 0 26.224 7.024 50.832 19.296 72.016M585.616 670.688c3.264 12.4 6.384-25.152 6.384-38.688 0-66.224-53.776-120-120-120a119.408 119.408 0 0 0-74.272 25.776A144.048 144.048 0 0 0 272 464c-79.472 0-144 64.528-144 144 0 26.224 17.84 96.464 19.296 72.016 10.784-179.808 167.712-183.392 250.432-94.992 67.824-66.656 166.24 3.392 187.888 85.664z"  horiz-adv-x="1024" />

    
    <glyph glyph-name="deer" unicode="&#58935;" d="M736 336c32.736 75.456 90.416 111.184 160 128-14.768-98.24-67.808-146.624-160-144v16z m-448 0c-32.736 75.456-90.416 111.184-160 128 14.768-98.24 67.808-146.624 160-144v16zM336 384c-72.368 52.928-130.48 73.216-208 80 78.176-29.312 156.48-79.744 176-128l32 48zM720 320l80 96 64 32c-35.648-40.704-59.088-83.088-64-128h-80z m-416 0l-80 96-64 32c35.648-40.704 59.088-83.088 64-128h80zM688 384c72.368 52.928 130.48 73.216 208 80-78.176-29.312-156.48-79.744-176-128l-32 48zM358.864 6.416a62.72 62.72 0 0 1-22.688 48.256C283.776 97.36 272 165.984 272 243.2 272 373.888 379.536 480 512 480s240-106.112 240-236.8c0-77.2-11.776-145.84-63.696-189.072a62.048 62.048 0 0 1-22.416-47.728h-0.752c0-65.392-86.864-118.4-153.136-118.4-66.272 0-153.136 53.008-153.136 118.4v0.016zM512-112c-19.568 0 95.008 45.712 91.168 142-2.672 67.36 85.328 41.776 74.656 219.088C669.6 385.728 461.36 480 512 480c123.632 0 240-132.368 240-256 0-72.768-10.08-125.136-57.92-163.072a57.6 57.6 0 0 1-21.536-44.912L672 16c0-61.856-98.144-128-160-128zM468.928 67.92c0 19.008 19.216 34.464 42.912 34.464 23.68 0 42.896-15.456 42.896-34.464 0-19.024-19.216-34.464-42.896-34.464-23.696 0-42.912 15.44-42.912 34.464zM386.224 409.2a479.392 479.392 0 0 0-76.64 79.568 427.6 427.6 0 0 0-33.456 51.424 25.488 25.488 0 0 1-9.184 9.68c-15.104 9.008-51.52 25.568-125.568 35.296-6.128 0.816-11.664 4.304-15.616 9.824a29.696 29.696 0 0 0-5.312 19.472c1.104 14.48 12.288 24.912 24.928 23.264 22.208-2.928 43.088-6.704 62.064-11.248 7.536-1.808 15.28 0.8 20.624 6.96 5.344 6.16 7.584 15.056 5.984 23.728-12.048 65.296-6.976 134.768 15.088 206.464 4.192 13.632 17.36 20.496 29.328 15.296 11.984-5.184 18.304-20.496 14.112-34.112-36.528-118.752-19.92-226.176 49.376-319.264 28.656-38.496 60.896-66.864 85.072-85.136m214.144-31.216a478.72 478.72 0 0 1 76.624 79.568 423.728 423.728 0 0 1 33.456 51.424c2.272 4.096 5.44 7.44 9.2 9.68 15.104 9.008 51.52 25.568 125.568 35.296 6.128 0.816 11.664 4.304 15.616 9.824 3.952 5.536 5.84 12.448 5.312 19.472-1.12 14.48-12.288 24.912-24.928 23.264a611.808 611.808 0 0 1-62.064-11.248c-7.536-1.808-15.28 0.8-20.624 6.96-5.344 6.16-7.584 15.056-5.984 23.728 12.048 65.296 6.96 134.768-15.088 206.464-4.192 13.632-17.36 20.496-29.328 15.296-11.984-5.184-18.304-20.496-14.112-34.112 36.528-118.752 19.92-226.176-49.376-319.264-28.656-38.496-60.896-66.864-85.072-85.136"  horiz-adv-x="1024" />

    
    <glyph glyph-name="gingerbread" unicode="&#58948;" d="M665.072-28.848l0.256-3.136a95.936 95.936 0 0 0-18.416-64.96l-3.088-4.176-9.952-2.032-0.048-0.016a96.352 96.352 0 0 0-71.136 21.584 90.576 90.576 0 0 0-26.896 36.864l129.28 15.872z m-391.68 6.784l182.896-22.464a90.4 90.4 0 0 0-26.976-37.056 96.352 96.352 0 0 0-71.136-21.584l-0.048 0.016a95.296 95.296 0 0 0-84.736 81.088z m389.024 25.12l-134.496-16.512-2.752 31.424 134.624 16.528 2.624-31.44z m-195.568 15.12l-2.752-31.424-190.8 23.44 2.752 31.424 190.8-23.44z m-251.36 618.736l162.896-26.032a16 16 0 0 1 13.856 27.088C366.976 662.912 352 697.712 352 736c0 79.472 64.528 144 144 144s144-64.528 144-144a143.52 143.52 0 0 0-39.504-99.04 14.72 14.72 0 0 1 12.768-24.992l163.568 24.992 25.264-143.28-134.48-22.416a48 48 0 0 1-39.952-51.328l29.472-353.52-134.768-16.544-10.432 119.28a16 16 0 0 1-31.872 0l-10.416-119.072-190.816 23.424 31.168 356.256-127.44 20.384 32.928 186.768z m-32.256 1.392L151.488 458.208C118.576 471.744 96 504.464 96 541.792v0.032c0 28.512 12.496 55.6 34.192 74.096a93.856 93.856 0 0 0 53.04 22.384z m625.872-0.112a94.16 94.16 0 0 0 52.704-22.304 93.968 93.968 0 0 0 30.528-48.992l-8.32-20.688a77.616 77.616 0 0 0-50.592-45.888l-24.32 137.872zM183.232 638.304a84 84 0 0 0 25.504-0.32l6.752-1.072-32.928-186.768-9.744 1.568a77.36 77.36 0 0 0-21.328 6.496l31.744 180.096z m90.064-628.112l190.8-23.44-0.208-2.512a83.648 83.648 0 0 0-7.6-28.768l-182.896 22.464a82.944 82.944 0 0 0-0.944 22.528l0.848 9.728z m196.352 39.888l-2.8-31.904-190.8 23.44 2.784 31.888 190.816-23.424z m58.272-63.536l134.496 16.512 2.656-31.904-129.28-15.872a83.536 83.536 0 0 0-7.68 28.96l-0.192 2.304z m-5.552 63.328l134.768 16.544 2.656-31.92-134.624-16.528-2.8 31.904z m286.736 588.32l24.32-137.872-10.48-3.168-20.848-3.472-25.264 143.28 6.432 0.976a81.984 81.984 0 0 0 25.84 0.256zM718.512-22.288a94.08 94.08 0 0 0-74.688-78.832l3.088 4.176a95.936 95.936 0 0 1 18.416 64.96l-37.664 451.92a48 48 0 0 0 39.952 51.328l155.328 25.888a80 80 0 0 1 61.072 49.056l8.32 20.688c2.56-8.256 3.664-16.608 3.664-25.072v-0.048a90.48 90.48 0 0 0-55.184-83.44l-7.392 41.984-10.48-3.168-20.848-3.472 7.664-43.472-127.76-20.448 31.184-356.464-56.048-6.88 2.656-31.92 56.176 6.896 2.752-31.424-56.304-6.912 2.656-31.904 53.44 6.56zM718.72 9.968l0.832-9.504c0.672-7.696 0.416-15.264-1.04-22.752l-53.44-6.56-2.656 31.904 56.304 6.912z m-5.536 63.328l2.784-31.904-56.176-6.896-2.656 31.92 56.048 6.88z m127.632 385.04c-6.512-3.2-13.872-5.392-21.6-6.624l-9.456-1.504-7.664 43.472 20.848 3.472 10.48 3.168 7.392-41.984zM496 480m-32 0a32 32 0 1 1 64 0 32 32 0 1 1-64 0ZM496 336m-32 0a32 32 0 1 1 64 0 32 32 0 1 1-64 0ZM448 768m-16 0a16 16 0 1 1 32 0 16 16 0 1 1-32 0ZM544 768m-16 0a16 16 0 1 1 32 0 16 16 0 1 1-32 0Z"  horiz-adv-x="1024" />

    
    <glyph glyph-name="letter" unicode="&#58954;" d="M16 736h992v-672H16zM16 736l496-432 496 432H16zM752 288h160v-128H752z"  horiz-adv-x="1024" />

    
    <glyph glyph-name="snowman" unicode="&#58970;" d="M440.192 395.616C358.64 348.352 304 260.512 304 160c0-139.056 104.576-253.888 240-269.952-10.032-1.392-20.944-2.048-32-2.048-150.128 0-272 121.872-272 272 0 100.96 55.12 189.136 136.88 236.08l63.312-0.464zM440.192 395.616l210.336-1.536C730.416 346.672 784 259.552 784 160c0-139.056-104.576-253.888-240-269.952C408.576-93.888 304 20.944 304 160c0 100.512 54.64 188.352 136.192 235.616z m-41.776 83.744A159.44 159.44 0 0 0 352 592c0 88.304 71.696 160 160 160s160-71.696 160-160a159.488 159.488 0 0 0-49.488-115.648M544 384c65.536-59.504 81.2-140.4 96-208l64 16c-23.504 72.768-42.48 149.84-96 192M656 480c-96.144-20.736-192.16-20.496-288 0-9.392-26.192-9.536-52.848 0-80 97.68-21.216 193.712-21.456 288 0 10.928 25.584 10.16 52.32 0 80zM650.528 394.08C730.416 346.672 772.64 258.896 784 160c22.864-199.104-255.696-306.912-272-272 0 0 203.168 30.208 208 256 3.28 153.168-128.24 250.512-128.24 250.512l58.768-0.432M525.04 769.152l-64 110.848-166.272-96 64-110.848M496 816l-164.624-100.624L358.128 672 528 768l-32 48zM512 248m-40 0a40 40 0 1 1 80 0 40 40 0 1 1-80 0ZM512 88m-40 0a40 40 0 1 1 80 0 40 40 0 1 1-80 0Z"  horiz-adv-x="1024" />

    
    <glyph glyph-name="wreath" unicode="&#58978;" d="M121.568 672c23.088 65.216 85.344 112 158.432 112 26.272 0 51.136-6.048 73.296-16.816C376.144 832.832 438.608 880 512 880c73.392 0 135.856-47.168 158.704-112.816A167.232 167.232 0 0 0 744 784C836.72 784 912 708.72 912 616c0-23.584-4.864-46.048-13.664-66.416 64-23.744 109.664-85.376 109.664-157.584 0-74.688-48.848-138.064-116.32-159.888A167.104 167.104 0 0 0 912 152C912 59.28 836.72-16 744-16c-26.272 0-51.136 6.048-73.296 16.816C647.856-64.832 585.392-112 512-112c-73.392 0-135.856 47.168-158.704 112.816A167.232 167.232 0 0 0 280-16C187.28-16 112 59.28 112 152c0 29.008 7.36 56.288 20.32 80.112C64.848 253.936 16 317.312 16 392c0 72.208 45.664 133.84 109.664 157.584A167.072 167.072 0 0 0 112 616l9.568 56zM512 544c88.304 0 160-71.696 160-160s-71.696-160-160-160-160 71.696-160 160 71.696 160 160 160zM359.2 728.08c14.4-4.208 29.792 2.224 36.896 15.456C424.464 795.744 480.112 830.096 544 832c35.584 1.056 90.864-15.872 126.704-64.816A167.232 167.232 0 0 0 744 784C836.72 784 912 708.72 912 616c0-23.584-4.864-46.048-13.664-66.416 64-23.744 109.664-85.376 109.664-157.584 0-74.688-48.848-138.064-116.32-159.888A167.104 167.104 0 0 0 912 152C912 59.28 836.72-16 744-16c-26.272 0-51.136 6.048-73.296 16.816C647.856-64.832 585.392-112 512-112c-73.392 0-135.856 47.168-158.704 112.816A167.232 167.232 0 0 0 280-16C187.28-16 112 59.28 112 152c0 29.008 7.36 56.288 20.32 80.112C97.344 255.248 66.256 315.68 64 376c-2.272 61.12 43.536 103.248 96.496 129.12a31.888 31.888 0 0 1 15.312 41.056c-7.312 14.608-14.336 29.12-15.808 37.824-15.36 90.832 58.896 164.448 152 152 11.2-1.504 29.6-3.616 47.2-7.92zM512 536a152.08 152.08 0 0 0 148.704-120.368A152.64 152.64 0 0 0 664 384c0-83.888-68.112-152-152-152s-152 68.112-152 152c0 21.84 4.624 42.624 12.928 61.392C396.544 498.736 449.952 536 512 536zM240 216.384m-72 0a72 72 0 1 1 144 0 72 72 0 1 1-144 0ZM560 744.384m-56 0a56 56 0 1 1 112 0 56 56 0 1 1-112 0ZM720 200.384m-72 0a72 72 0 1 1 144 0 72 72 0 1 1-144 0ZM880 440.384m-56 0a56 56 0 1 1 112 0 56 56 0 1 1-112 0ZM496 56.384m-56 0a56 56 0 1 1 112 0 56 56 0 1 1-112 0ZM176 424.384m-56 0a56 56 0 1 1 112 0 56 56 0 1 1-112 0ZM891.6 535.936c12.96 23.824 15.536 34.016 6.736 13.648 64-23.744 109.664-85.376 109.664-157.584 0-74.688-48.848-138.064-116.32-159.888A167.104 167.104 0 0 0 912 152C912 59.28 836.72-16 744-16c-26.272 0-51.136 6.048-73.296 16.816C647.856-64.832 585.392-112 512-112c-73.344 0-135.776 47.104-158.672 112.688 35.856-48.8 91.04-65.696 126.592-64.64 63.888 1.904 119.536 36.256 147.904 88.464a31.76 31.76 0 0 0 36.896 15.456c17.6-4.304 36-6.416 47.2-7.92 93.104-12.448 167.36 61.168 152 152-1.472 8.704-8.496 23.2-15.808 37.824a31.904 31.904 0 0 0 15.312 41.056c52.96 25.872 98.768 68 96.496 129.12-2.256 60.32-33.344 120.736-68.32 143.888zM353.264 0.8c-22.144-10.768-22.208-10.704-0.048 0.064l0.048-0.064zM480 622.928c-54.64 40.816-109.52 62.8-164.656 64.912a47.312 47.312 0 0 1-45.536-32.864c-18.176-59.28-18.336-121.392-0.688-186.24a47.568 47.568 0 0 1 50.496-34.576c57.376 6.448 110.768 27.184 160.384 61.488M494.928 590.928c-54.64 40.816-109.52 62.8-164.656 64.912a47.312 47.312 0 0 1-45.536-32.864c-18.176-59.28-18.336-121.392-0.672-186.24a47.536 47.536 0 0 1 50.496-34.576c57.376 6.448 110.768 27.184 160.368 61.488M544 622.928c59.856 41.728 119.968 63.76 180.384 65.008a47.424 47.424 0 0 0 44.704-31.92c19.712-60.016 19.872-122.848 0.496-188.496a47.52 47.52 0 0 0-49.392-33.648C657.056 439.648 598.4 460.544 544 495.648M754 672c13.168-135.808-14.96-219.984-120-208l105.008-32c52 85.072 48.96 181.824 14.992 240zM512 560m-64 0a64 64 0 1 1 128 0 64 64 0 1 1-128 0ZM528 544m-64 0a64 64 0 1 1 128 0 64 64 0 1 1-128 0ZM512.016 520.656c76.288 46.608 27.936 104.176 40.064 91.392a66.336 66.336 0 0 0 18.288-45.792 66.56 66.56 0 0 0-66.544-66.544 66.352 66.352 0 0 0-48.448 20.944c-11.216 11.904 14.32-25.872 56.64 0z"  horiz-adv-x="1024" />

    
    <glyph glyph-name="weixin" unicode="&#58896;" d="M648.76385 508.44222c9.614985 0 19.127639-0.706081 28.563546-1.757017-25.665543 119.509884-153.434531 208.30421-299.276131 208.30421-163.049516 0-296.611441-111.138216-296.611441-252.264421 0-81.462337 44.436048-148.356886 118.690216-200.24158l-29.66667-89.228207 103.690594 51.997258c37.103036-7.344269 66.871013-14.895245 103.898325-14.895245 9.30697 0 18.537192 0.459464 27.689642 1.178849-5.794983 19.831674-9.152451 40.602743-9.152451 62.153571-0.001023 129.58638 111.279433 234.752582 252.17437 234.752582z m-159.484318 80.422658c22.333658 0 37.128619-14.69263 37.128619-37.012986 0-22.231327-14.794961-37.128619-37.128619-37.128618-22.231327 0-44.537356 14.897292-44.537355 37.128618 0 22.319331 22.307052 37.012985 44.537355 37.012986z m-207.587895-74.141604c-22.228257 0-44.664246 14.897292-44.664246 37.128618 0 22.320355 22.435988 37.012985 44.664246 37.012986 22.230304 0 37.026288-14.69263 37.026288-37.012986 0-22.231327-14.794961-37.128619-37.026288-37.128618zM170.461323 157.110503c-3.805676 0-7.568373 1.340531-10.564613 3.936659a16.147772 16.147772 0 0 0-4.761444 17.302061l25.922393 77.976956c-75.800383 56.343239-115.76663 127.492696-115.76663 206.398813 0 148.005892 140.30142 268.413216 312.757166 268.413216 151.496389 0 286.130739-93.717452 314.491671-218.451314a16.037255 16.037255 0 0 0 1.146103-6.002714c0-8.919137-7.221472-16.145725-16.145725-16.145725h-0.209778a15.738449 15.738449 0 0 0-1.786693 0.100284c-10.006911 1.11438-18.763342 1.655709-26.773783 1.655709-130.146129 0-236.031714-98.064456-236.031715-218.603786 0-18.937305 2.859118-38.325887 8.493442-57.630559a16.123212 16.123212 0 0 0-2.207272-13.696953 16.126282 16.126282 0 0 0-12.014638-6.92676c-10.490935-0.824785-19.961634-1.224898-28.959565-1.224897-32.755008 0-60.506049 5.697769-89.886193 11.726065-3.847631 0.787946-7.747451 1.592264-11.731182 2.396583l-98.726536-49.510623a16.163121 16.163121 0 0 0-7.245008-1.713015z m207.586872 541.735232c-154.649196 0-280.465716-105.922425-280.465716-236.121766 0-72.252581 37.611619-135.171586 111.793132-187.005114a16.153912 16.153912 0 0 0 6.075369-18.327414l-17.365506-52.222386 68.820412 34.515095a16.084327 16.084327 0 0 0 10.375301 1.408069 2868.182988 2868.182988 0 0 0 17.37574-3.521196c31.272237-6.417153 57.415664-11.789511 90.695628-10.973936-3.258207 15.768125-4.9088 31.540344-4.9088 47.092551 0 138.345881 120.370485 250.895237 268.324188 250.895237 2.270716 0 4.583388-0.036839 6.948249-0.110517-33.878598 100.784404-148.856259 174.371376-277.667997 174.371377zM489.283626 498.575502c-29.1806 0-60.685127 20.366863-60.685128 53.27332 0 32.838919 31.503505 53.163827 60.685128 53.163827 31.367405 0 53.273321-21.858844 53.27332-53.163827 0.001023-31.366382-21.905916-53.273321-53.27332-53.27332z m0 74.144674c-13.707187 0-28.392654-8.388041-28.392654-20.871354 0-12.550851 14.685467-20.98187 28.392654-20.98187 13.328563 0 20.98187 7.647167 20.98187 20.98187 0 13.46057-7.452739 20.871353-20.98187 20.871354zM281.696754 498.575502c-29.244045 0-60.810994 20.366863-60.810995 53.27332 0 32.838919 31.56695 53.163827 60.810995 53.163827 31.30396 0 53.168943-21.858844 53.168943-53.163827 0-31.366382-21.864984-53.273321-53.168943-53.27332z m0 74.144674c-13.770632 0-28.51852-8.388041-28.518521-20.871354 0-12.366655 15.032368-20.98187 28.518521-20.98187 13.266142 0 20.87647 7.647167 20.876469 20.98187 0 13.266142-7.610328 20.871353-20.876469 20.871354zM942.566316 264.501372c0 118.587885-118.66668 215.252459-251.945149 215.252459-141.126204 0-252.277724-96.664573-252.277724-215.252459 0-118.792547 111.151519-215.252459 252.277724-215.252459 29.537733 0 59.33027 7.448646 88.997963 14.885012l81.356936-44.551682-22.307052 74.126255c59.538001 44.666292 103.897302 103.897302 103.897302 170.792874z m-333.74006 37.115316c-14.769378 0-29.66667 14.69263-29.66667 29.679973 0 14.779611 14.897292 29.6636 29.66667 29.6636 22.435988 0 37.128619-14.885012 37.128619-29.6636 0-14.987343-14.69263-29.679973-37.128619-29.679973z m163.15287 0c-14.667048 0-29.462009 14.69263-29.462009 29.679973 0 14.779611 14.794961 29.6636 29.462009 29.6636 22.230304 0 37.125549-14.885012 37.125549-29.6636 0-14.987343-14.895245-29.679973-37.125549-29.679973zM860.981183 3.438565c-2.659573 0-5.329379 0.651846-7.757685 1.98112l-75.810616 41.516556c-28.223808-7.043417-57.310264-13.833053-86.795808-13.833053-148.005892 0-268.418332 103.804181-268.418333 231.396137 0 127.597073 120.41244 231.401254 268.418333 231.401254 145.325853 0 268.092921-105.969497 268.092921-231.401254 0-62.292742-35.897581-124.727723-101.375876-176.777169l19.110244-63.4808a16.130376 16.130376 0 0 0-5.297656-17.197684 16.096607 16.096607 0 0 0-10.165524-3.605107z m-81.361029 76.841085c2.691295 0 5.361101-0.672312 7.757684-1.98112l46.777373-25.617448-10.95347 36.370349a16.147772 16.147772 0 0 0 5.771447 17.570168c62.839187 47.140647 97.444333 103.20964 97.444333 157.876703 0 107.930151-107.987457 199.10878-235.800447 199.10878-130.199341 0-236.126882-89.318258-236.126882-199.10878 0-109.785405 105.927541-199.103664 236.126882-199.103664 27.635407 0 56.837496 7.321756 85.071537 14.400989a16.390295 16.390295 0 0 0 3.931543 0.484023z m-7.642051 205.190289c-23.87271 0-45.610804 21.843494-45.610804 45.825699 0 23.546276 22.168905 45.810349 45.610804 45.810348 29.380144 0 53.273321-20.551058 53.273321-45.810348 0-25.270547-23.893176-45.825698-53.273321-45.825699z m0 59.344597c-5.728468 0-13.31833-7.705496-13.31833-13.517875 0-5.944386 7.462972-13.534248 13.31833-13.534248 13.507642 0 20.98187 8.004301 20.98187 13.534248-0.001023 5.522784-7.474228 13.517875-20.98187 13.517875z m-163.153894-59.344597c-23.977088 0-45.810349 21.843494-45.810348 45.825699 0 23.546276 22.264073 45.810349 45.810348 45.810348 32.902364 0 53.273321-23.777543 53.273321-45.810348 0-22.526039-19.929912-45.825698-53.273321-45.825699z m0 59.344597c-5.813403 0-13.517875-7.705496-13.517875-13.517875 0-5.944386 7.578606-13.534248 13.517875-13.534248 13.68672 0 20.98187 7.857968 20.98187 13.534248-0.001023 5.522784-7.474228 13.517875-20.98187 13.517875z"  horiz-adv-x="1024" />

    
    <glyph glyph-name="csdn" unicode="&#58936;" d="M512-128C229.2224-128 0 101.2224 0 384 0 666.7776 229.2224 896 512 896c282.7776 0 512-229.2224 512-512 0-282.7776-229.2224-512-512-512z m17.066667 413.525333c34.850133-4.352 68.778667-5.12 102.741333-2.0992 23.04 2.048 44.817067 8.362667 64.170667 21.9136 38.212267 26.794667 49.783467 85.1968 24.251733 123.050667-14.626133 21.7088-36.8128 30.344533-60.757333 35.498667-35.054933 7.543467-70.4512 5.751467-105.847467 3.413333-5.666133-0.3584-6.7584-3.072-7.236267-8.209067-3.072-32.682667-6.536533-65.314133-9.813333-97.962666-2.5088-24.814933-4.932267-49.629867-7.509333-75.605334z m53.4016 33.928534c1.962667 20.906667 3.6352 39.338667 5.4272 57.770666 1.553067 15.906133 3.413333 31.778133 4.727466 47.701334 0.3584 4.283733 1.553067 6.656 5.956267 6.382933 15.616-1.041067 31.709867-0.034133 46.728533-3.652267 36.488533-8.823467 48.725333-54.306133 23.3472-83.029333-15.8208-17.902933-36.7616-23.586133-59.255466-25.088-8.465067-0.546133-17.015467-0.085333-26.9312-0.085333zM512 461.704533c-2.184533 0.648533-3.5328 1.1776-4.932267 1.4336-37.717333 6.877867-75.690667 8.328533-113.646933 2.816-20.974933-3.037867-41.0112-9.489067-57.480533-23.330133-22.9888-19.319467-21.640533-46.848 4.4032-62.0032 13.056-7.594667 28.023467-12.509867 42.5984-17.288533 14.08-4.608 28.996267-6.826667 43.144533-11.264 12.5952-3.925333 14.011733-14.318933 3.584-22.306134-3.345067-2.56-7.441067-5.085867-11.537067-5.751466-11.195733-1.826133-22.698667-4.386133-33.826133-3.566934-24.098133 1.774933-48.042667 5.461333-72.5504 8.430934-1.365333-10.615467-2.935467-23.0912-4.5568-35.9424 4.181333-1.365333 7.68-2.730667 11.264-3.618134 33.9456-8.4992 68.386133-9.608533 102.912-5.12 20.087467 2.6112 39.4752 7.901867 56.695467 19.029334 28.603733 18.4832 36.693333 57.1904-4.676267 75.383466-14.506667 6.382933-30.190933 10.410667-45.482667 15.086934-11.4176 3.4816-23.313067 5.614933-34.525866 9.5232-9.7792 3.413333-11.144533 12.202667-3.037867 18.397866 4.6592 3.549867 10.717867 6.997333 16.384 7.3728a480.853333 480.853333 0 0 0 53.384533 0.853334c15.377067-0.699733 30.651733-3.549867 46.4896-5.5296L512 461.704533z m257.143467-2.048L750.933333 281.7024h54.152534c4.778667 45.636267 9.710933 90.7264 14.062933 135.8848 0.6144 6.365867 2.3552 8.840533 8.686933 9.0112 11.434667 0.273067 22.8864 1.979733 34.286934 1.570133 23.722667-0.853333 42.3936-9.728 38.4-43.264-2.901333-24.2688-5.597867-48.571733-8.2432-72.874666-1.092267-10.069333-1.826133-20.189867-2.730667-30.4128h55.330133c3.584 35.259733 7.9872 70.058667 10.496 104.994133 3.413333 47.4624-17.7664 73.3184-64.682666 80.213333-40.96 6.007467-81.339733 0.341333-121.5488-7.133866z m-483.498667-134.6048c-8.738133-1.297067-16.384-2.798933-24.098133-3.4816-25.6512-2.235733-51.319467-3.9424-76.305067 4.266667-13.909333 4.590933-24.6784 12.578133-29.7984 25.9584-7.901867 20.701867 0.887467 47.104 19.831467 60.3136 17.373867 12.117333 37.717333 15.9232 58.453333 15.9232 22.545067 0.017067 45.090133-2.423467 68.232533-3.84L307.2 463.701333c-15.069867 1.723733-29.4912 3.925333-43.997867 4.9152-41.0112 2.798933-80.64-2.6112-117.469866-20.462933-30.020267-14.557867-52.053333-36.010667-58.6752-68.130133-7.850667-38.144 11.537067-69.495467 51.7632-85.845334 19.1488-7.765333 39.287467-12.509867 60.0064-12.5952 24.746667-0.1024 49.493333 1.570133 74.205866 2.952534 3.106133 0.170667 8.311467 2.901333 8.669867 5.034666 1.979733 11.554133 2.730667 23.278933 3.9424 35.464534z"  horiz-adv-x="1024" />

    
    <glyph glyph-name="QQ" unicode="&#58880;" d="M411.72647522-57.700731880000035c0-20.71767027-33.14827332-37.29180621-72.92619982-37.29180769-40.60663427 0-72.92619983 16.57413593-72.92619985 37.29180769s145.85239966 20.71767027 145.85239967 0zM749.83885573-57.700731880000035c0-20.71767027-33.14827332-37.29180621-72.92619983-37.29180769s-72.92619983 16.57413593-72.92619983 37.29180769 145.85239966 20.71767027 145.85239966 0zM136.5958133 414.66215154a467.39064426000004 371.26065236 90 1 1 742.52130618 0 467.39064426000004 371.26065236 90 1 1-742.52130618 0ZM395.98104558 689.79281494a74.58361388 49.72240926 90 1 1 99.44481849 0 74.58361388 49.72240926 90 1 1-99.44481849 0ZM536.86120463 689.79281494a73.75490611 49.72240926 90 1 1 99.44481701 0 73.75490611 49.72240926 90 1 1-99.44481701 0ZM647.90791694 550.5700699500001c0-20.71767027-55.52335616-37.29180621-123.47731537-37.29180621s-123.47731536 16.57413593-123.47731535 37.29180621c-0.82870628 20.71767027 246.95463072 20.71767027 246.95463072 0zM423.32837053 721.28367423a28.17603121 16.57413593 90 1 1 33.14827331 0 28.17603121 16.57413593 90 1 1-33.14827331 0ZM580.78266549 659.13066194a28.17603121 16.57413593 90 1 1 33.14827332 0 28.17603121 16.57413593 90 1 1-33.14827332 0ZM321.39743319 414.66215154v-101.10223105c0-180.65808555 87.84292174-326.51048521 197.23222148-326.51048524s197.23222148 145.85239966 197.23222148 326.51048524V414.66215154H321.39743319zM72.78538843 162.73528018000002l41.43534055 211.32023856c6.62965467 33.97697961 33.97697961 56.3520639 61.32430453 51.37982181 26.51861866-4.97224063 43.09275459-33.97697961 38.94922024-66.29654518 0-3.31482659-1.65741403-5.80094838-2.48612031-9.11577498L163.94313824 227.37441131000003c0-0.82870628-0.82870628-1.65741403-1.65741406-2.48612031l-22.37508429-45.57887488c-1.65741403-3.31482659-2.48612032-5.80094838-3.31482659-9.115775-6.62965467-33.14827332-19.88896398-74.58361388-25.68991239-77.89844047-5.80094838-3.31482659 0 0 0 0-27.34732495 4.97224063-44.75016861 36.46309991-38.12051248 70.44007953zM932.15435533 711.3391915L811.99186656 533.16722626c-19.06025625-28.17603121-15.74542964-63.81042485 7.45836242-79.55585449 22.37508431-14.91672337 54.69464987-6.62965467 73.75490613 19.0602577 1.65741403 2.48612032 3.31482659 4.97224063 4.97224061 8.28706724l52.20852956 120.99119504c0.82870628 0.82870628 0.82870628 1.65741403 0.82870629 3.31482807 0 0 19.06025625 53.86594359 20.71767028 57.18077019 18.23154996 28.17603121 38.94922022 67.12525145 37.29180768 72.92619982-1.65741403 6.62965467 0 0 0 0-23.20379058 14.91672337-58.00947646 4.97224063-77.0697342-24.03249833zM843.48272586 398.08801561H172.23020545c-27.34732495 0-49.72240926 22.37508431-49.72240776 49.72240924v1.65741405c0 27.34732495 22.37508431 49.72240926 49.72240776 49.72240777h671.25252041c27.34732495 0 49.72240926-22.37508431 49.72240925-49.72240777v-1.65741405c0-27.34732495-22.37508431-49.72240926-49.72240925-49.72240924zM212.00813344 252.23561594V408.86120463c0 28.17603121 22.37508431 50.55111553 50.55111552 50.55111551 28.17603121 0 50.55111553-22.37508431 50.55111553-50.55111551v-156.62558869c0-28.17603121-22.37508431-50.55111553-50.55111553-50.55111552-27.34732495 0-50.55111553 22.37508431-50.55111552 50.55111552z"  horiz-adv-x="1024" />

    
    <glyph glyph-name="xingxing1" unicode="&#59227;" d="M1204.814491 773.329624l-104.202498 9.819364a18.026592 18.026592 0 0 0-14.655767 11.138382L1048.290907 884.860006a17.880035 17.880035 0 0 1-33.122032 0l-37.079088-90.572636a17.586919 17.586919 0 0 0-14.655767-11.138382l-104.349055-9.819364a18.026592 18.026592 0 0 1-10.112479-31.363339l78.554907-69.028659a17.733477 17.733477 0 0 0 5.715749-17.58692L908.91457 558.915764a18.026592 18.026592 0 0 1 26.673495-19.638727l86.908693 51.002067a17.586919 17.586919 0 0 0 18.173151 0L1128.751064 538.837364A18.026592 18.026592 0 0 1 1154.69177 558.915764l-23.302668 96.874615a17.733477 17.733477 0 0 0 5.715749 17.58692l78.554907 69.028659a18.319708 18.319708 0 0 1-10.845267 31.363339zM928.699854 671.325491l4.250173 17.147247a18.026592 18.026592 0 0 1-5.715749 17.000689l-74.451293 66.097505a18.026592 18.026592 0 0 1-4.103614-29.311532l78.554907-69.028659a14.655766 14.655766 0 0 0 1.465576-1.90525zM1211.263028 771.424375L1137.104851 705.473427a18.026592 18.026592 0 0 1-5.715749-17.733478l4.103614-17.293804 1.612135 1.758692 78.554907 69.028659a18.319708 18.319708 0 0 1-4.39673 30.190879zM1150.588155 575.623338a17.880035 17.880035 0 0 0-22.56988-3.663942L1040.816466 623.10802a18.319708 18.319708 0 0 1-18.17315 0l-86.908694-51.148624a17.733477 17.733477 0 0 0-22.423322 3.810499L908.91457 558.915764a18.026592 18.026592 0 0 1 26.673495-19.638727l86.908693 51.002067a17.586919 17.586919 0 0 0 18.173151 0L1128.751064 538.837364A18.026592 18.026592 0 0 1 1154.69177 558.915764zM869.490559 351.536672a42.501722 42.501722 0 0 1-25.06136 73.278831L601.143479 447.678498a42.208607 42.208607 0 0 0-34.880724 25.794149l-86.762136 211.043034a41.622376 41.622376 0 0 1-77.235888 0l-86.469021-211.043034a41.182703 41.182703 0 0 0-34.734166-25.794149L37.922382 424.668945a41.915491 41.915491 0 0 1-23.595784-73.278831l183.050521-161.213429a42.062049 42.062049 0 0 0 13.336747-41.182703L155.608185-75.97203a42.062049 42.062049 0 0 1 61.993891-46.019106l190.524961 112.116612c71.227024 56.4247 69.468332 125.160244 56.717816 147.583566-14.655766 25.354476-34.294493 36.199743-52.760759 26.673495s-19.638727-18.319708-19.638727-18.319708a34.734166 34.734166 0 1 0 34.294493-60.381757s-40.303357-25.06136-67.416524 22.862995 18.612823 83.39131 28.432186 88.813944a83.537868 83.537868 0 0 0 112.995958-39.424011c27.845956-49.096817 16.414458-112.995958-28.432187-166.489505l193.163-113.435631a41.915491 41.915491 0 0 1 61.993891 46.019106l-54.372893 225.552243a41.915491 41.915491 0 0 0 13.19019 41.182703zM205.43779 182.409129l5.276076 24.768245a41.768934 41.768934 0 0 1-13.336747 41.036146L14.912829 408.987275A8.295164 8.295164 0 0 0 11.542003 412.358102 42.355164 42.355164 0 0 1 14.912829 351.536672l183.05052-161.213429a43.967299 43.967299 0 0 0 7.474441-7.914114zM871.542366 411.18564l-2.051807-2.198365-183.197078-161.213428a41.768934 41.768934 0 0 1-13.19019-41.036146l6.008864-24.621687a42.64828 42.64828 0 0 0 7.181326 8.353787l183.197078 161.213428a42.355164 42.355164 0 0 1 2.051807 59.502411zM460.887796 55.197078a41.622376 41.622376 0 0 1-40.596473-0.732788l-202.689247-119.15138a41.622376 41.622376 0 0 0-55.985027 13.19019l-6.008864-24.47513a42.062049 42.062049 0 0 1 61.993891-46.019106l190.524961 112.116612a173.524272 173.524272 0 0 1 52.760759 65.071602zM727.476184-75.97203l-5.862307 24.328572a41.622376 41.622376 0 0 0-56.131584-13.043632l-166.049832 97.607403a203.275478 203.275478 0 0 0-27.113168-41.475818l193.163-113.435631a41.915491 41.915491 0 0 1 61.993891 46.019106z"  horiz-adv-x="1221" />

    
    <glyph glyph-name="lianxiren1" unicode="&#58999;" d="M805.84 708.13h-569a34 34 0 0 1-34-34v-659a34 34 0 0 1 34-34h569a34 34 0 0 1 34 34v659a34 34 0 0 1-34 34z m-64-553.74H362.8c-20.52 0-20.52 42-2.22 51 1 0 42.51 33.37 69.05 48.22 27.22 15.28 68.35 38.4 68.53 50.66l0.11 11.65c-26 25.66-40.33 60.56-40.33 98.92 0 59.29 11.1 120 93.32 120s93.17-60.67 93.17-119.92c0-38.4-14.34-73.45-40.21-99v-11.86c0.26-12.09 41.46-35.24 68.54-50.52 29.69-16.71 47.49-28.68 69.07-48.15s21.58-51 0.03-51zM202.84 571.87v-74h-41.45a37 37 0 0 0 0 74zM304.38 534.87a37 37 0 0 0-37-37h-64.54v74h64.54a37 37 0 0 0 37-37zM202.84 388.94v-74h-41.45a37 37 0 0 0 0 74zM304.38 351.94a37 37 0 0 0-37-37h-64.54v74h64.54a37 37 0 0 0 37-37zM202.84 206v-74h-41.45a37 37 0 0 0 0 74zM304.38 169a37 37 0 0 0-37-37h-64.54v74h64.54a37 37 0 0 0 37-37z"  horiz-adv-x="1024" />

    
    <glyph glyph-name="lianjie" unicode="&#59142;" d="M495.42 262.77c0.16-1 0.31-2 0.45-3l-1.07 8a156.87 156.87 0 0 0 0.12-39.92l1.07 8a155.31 155.31 0 0 0-10.51-38.79l3 7.16a152.85 152.85 0 0 0-12.61-23.66c-1.32-2-2.69-4-4.11-5.94-4.1-5.64 4.18 5.1-0.24-0.35q-4.67-5.73-9.86-11l-6-6-34.78-34.78-83.59-83.59c-2.27-2.27-4.53-4.55-6.81-6.82a159.66 159.66 0 0 0-10.82-9.82 15.76 15.76 0 0 1-2.25-1.81c0.8 1 6.07 4.58 2.07 1.63a137.83 137.83 0 0 0-5.25-3.71 152.09 152.09 0 0 0-24.66-13.43l7.15 3a154.43 154.43 0 0 0-38.44-10.63l8 1.07a155.17 155.17 0 0 0-41 0l8-1.07a154.55 154.55 0 0 0-38.44 10.63l7.16-3a152.6 152.6 0 0 0-24.67 13.43c-1.77 1.2-3.52 2.43-5.25 3.71-4 2.91 0.85-1 2.07-1.63a18.44 18.44 0 0 0-2.81 2.28q-5.34 4.36-10.22 9.27-4.67 4.66-8.9 9.71c-0.77 0.92-1.52 1.86-2.29 2.79-2.27 2.75 4.44-6 1.61-2.07-1.4 1.93-2.81 3.85-4.14 5.82a151.27 151.27 0 0 0-13.4 24.66l3-7.15a154.55 154.55 0 0 0-10.63 38.44l1.07-8a155.09 155.09 0 0 0 0 41l-1.07-8A154.55 154.55 0 0 0 137 167.67l-3-7.16a152.54 152.54 0 0 0 11.09 21.1c2.17 3.42 4.5 6.7 6.9 10 2.11 2.87-4.32-5.41-2-2.65 0.77 0.92 1.52 1.87 2.29 2.79q2.11 2.52 4.33 4.93c2.83 3.09 5.83 6 8.8 9L198.68 239l84.78 84.78c2.71 2.72 5.41 5.44 8.14 8.14 2.37 2.35 4.79 4.65 7.29 6.85 1.84 1.61 3.74 3.14 5.63 4.69 2.87 2.36-5.23-3.87-2.22-1.72 1.1 0.78 2.17 1.58 3.26 2.36a152.37 152.37 0 0 0 27.64 15.3l-7.16-3a154.87 154.87 0 0 0 38.79 10.5l-8-1.07a155.89 155.89 0 0 0 39.91-0.12l-8 1.07c1-0.13 2-0.28 3.05-0.44 8.26-1.26 15.58-1.37 23.08 3 6.21 3.64 12.14 10.76 13.76 17.9 1.75 7.67 1.37 16.28-3 23.08-3.94 6.11-10.37 12.62-17.89 13.76-31.59 4.82-64 3.3-94.06-8.47-24.56-9.61-46.44-23.33-65.18-42q-25.47-25.4-50.87-50.87l-66.93-66.93c-4.52-4.52-9.09-9-13.55-13.57a181.86 181.86 0 0 1-44-75.55c-8.08-27.76-8.7-56.84-3.49-85.15 5.33-28.94 18.91-55.28 37-78.22 34.54-43.82 91.75-69 147.36-66a182.74 182.74 0 0 1 82.69 24.42c14.49 8.52 27.51 19.34 39.37 31.2l57.5 57.5 62.86 62.86a268.66 268.66 0 0 1 26.11 29.7c19.33 26 29.61 57.4 32.79 89.39 1.55 15.59 0.19 30.9-2.16 46.34-1.06 6.92-8 14.53-13.77 17.9-6.42 3.75-15.88 5.35-23.08 3s-14.23-6.84-17.89-13.77c-4-7.58-4.31-14.66-3-23.07zM616.2 343.94c31.58-4.82 64-3.3 94.06 8.46 24.56 9.62 46.44 23.34 65.18 42q25.47 25.4 50.87 50.87l66.93 66.93c4.52 4.52 9.1 9 13.55 13.57a181.86 181.86 0 0 1 44 75.55c8.08 27.76 8.7 56.84 3.49 85.15-5.33 28.94-18.91 55.28-37 78.22-34.54 43.82-91.75 69.05-147.36 66a182.74 182.74 0 0 1-82.69-24.42c-14.49-8.52-27.51-19.34-39.37-31.2l-57.5-57.5-62.86-62.86A268.66 268.66 0 0 1 501.45 625c-19.33-26-29.61-57.4-32.79-89.39-1.55-15.59-0.19-30.89 2.16-46.33 1.06-6.92 8-14.53 13.77-17.9 6.42-3.76 15.88-5.35 23.07-3s14.24 6.84 17.9 13.76c4 7.58 4.3 14.67 3 23.08-0.16 1-0.31 2-0.45 3.05l1.07-8a156.34 156.34 0 0 0-0.11 39.91l-1.07-8a154.87 154.87 0 0 0 10.5 38.79l-3-7.15a152.41 152.41 0 0 0 12.62 23.65c1.31 2 2.68 4 4.1 5.94 4.1 5.64-4.18-5.1 0.24 0.35q4.66 5.73 9.86 11l6 6 34.78 34.78 83.58 83.59c2.28 2.27 4.54 4.55 6.82 6.82 3.46 3.43 7.06 6.72 10.82 9.82a15.76 15.76 0 0 1 2.25 1.81c-0.8-1-6.07-4.58-2.07-1.63 1.72 1.28 3.47 2.51 5.25 3.71a152.09 152.09 0 0 0 24.66 13.43l-7.15-3a154.43 154.43 0 0 0 38.44 10.63l-8-1.07a155.17 155.17 0 0 0 41 0l-8 1.07a154.55 154.55 0 0 0 38.44-10.63l-7.16 3a152.6 152.6 0 0 0 24.67-13.43c1.77-1.2 3.52-2.43 5.25-3.71 4-2.91-0.85 1-2.07 1.63a18.44 18.44 0 0 0 2.81-2.28q5.34-4.44 10.25-9.35 4.67-4.67 8.9-9.71c0.77-0.92 1.52-1.86 2.29-2.79 2.27-2.75-4.44 6-1.61 2.08 1.4-1.94 2.81-3.86 4.14-5.83A151.27 151.27 0 0 0 890 695.09l-3 7.15a154.55 154.55 0 0 0 10.63-38.44l-1.07 8a155.09 155.09 0 0 0 0-40.95l1.07 8A154.55 154.55 0 0 0 887 600.33l3 7.16a152.54 152.54 0 0 0-11.09-21.1c-2.17-3.42-4.5-6.7-6.9-10-2.11-2.87 4.32 5.41 2 2.65-0.77-0.92-1.52-1.87-2.29-2.79q-2.12-2.52-4.33-4.93c-2.83-3.09-5.83-6-8.8-9L825.32 529l-84.78-84.78c-2.71-2.72-5.41-5.44-8.14-8.14-2.37-2.35-4.79-4.65-7.29-6.85-1.84-1.61-3.74-3.14-5.63-4.69-2.87-2.36 5.23 3.87 2.21 1.72-1.09-0.78-2.16-1.59-3.25-2.36a152.76 152.76 0 0 0-27.64-15.31l7.16 3a154.94 154.94 0 0 0-38.8-10.5l8 1.07a156 156 0 0 0-39.92 0.12l8-1.07c-1 0.14-2 0.29-3 0.45-8.26 1.25-15.58 1.36-23.08-3-6.21-3.64-12.13-10.76-13.76-17.9-1.75-7.67-1.37-16.27 3-23.08 3.94-6.11 10.38-12.62 17.9-13.76zM356.86 187.56l35.27 35.27 84 84 102.23 102.23 88.07 88.07c14.25 14.25 28.8 28.27 42.78 42.78 0.2 0.21 0.4 0.4 0.6 0.6 11.09 11.1 11.92 31.42 0 42.36s-30.51 11.83-42.35 0l-35.28-35.28-84-84L446 361.37l-88.11-88.07c-14.25-14.3-28.8-28.3-42.79-42.79l-0.6-0.6c-11.09-11.09-11.92-31.41 0-42.35s30.52-11.84 42.36 0z"  horiz-adv-x="1024" />

    
    </font>
</defs>
</svg>
